<?xml version="1.0" encoding="UTF-8" standalone="no"?>
<!-- Created with Inkscape (http://www.inkscape.org/) -->

<svg
   xmlns:dc="http://purl.org/dc/elements/1.1/"
   xmlns:cc="http://creativecommons.org/ns#"
   xmlns:rdf="http://www.w3.org/1999/02/22-rdf-syntax-ns#"
   xmlns:svg="http://www.w3.org/2000/svg"
   xmlns="http://www.w3.org/2000/svg"
   xmlns:sodipodi="http://sodipodi.sourceforge.net/DTD/sodipodi-0.dtd"
   xmlns:inkscape="http://www.inkscape.org/namespaces/inkscape"
   version="1.1"
   id="svg8115"
   xml:space="preserve"
   width="192"
   height="192"
   viewBox="0 0 192 192"
   sodipodi:docname="apps-logo.svg"
   inkscape:version="0.92.3 (2405546, 2018-03-11)"><metadata
     id="metadata8121"><rdf:RDF><cc:Work
         rdf:about=""><dc:format>image/svg+xml</dc:format><dc:type
           rdf:resource="http://purl.org/dc/dcmitype/StillImage" /><dc:title></dc:title></cc:Work></rdf:RDF></metadata><defs
     id="defs8119" /><sodipodi:namedview
     pagecolor="#ffffff"
     bordercolor="#666666"
     borderopacity="1"
     objecttolerance="10"
     gridtolerance="10"
     guidetolerance="10"
     inkscape:pageopacity="0"
     inkscape:pageshadow="2"
     inkscape:window-width="716"
     inkscape:window-height="480"
     id="namedview8117"
     showgrid="false"
     inkscape:zoom="1.2291667"
     inkscape:cx="96"
     inkscape:cy="96"
     inkscape:window-x="0"
     inkscape:window-y="0"
     inkscape:window-maximized="0"
     inkscape:current-layer="g8123" /><g
     id="g8123"
     inkscape:groupmode="layer"
     inkscape:label="ink_ext_XXXXXX"
     transform="matrix(1.3333333,0,0,-1.3333333,0,192)"><g
       id="g8125"
       transform="scale(0.1)"><path
         d="m 1017.59,1211.46 c -8.45,-2.25 -17.15,2.75 -19.406,11.22 -2.266,8.46 2.746,17.14 11.196,19.4 8.46,2.28 17.15,-2.74 19.42,-11.2 2.26,-8.46 -2.74,-17.15 -11.21,-19.42 z m 27.51,3.68 c 2.25,6.15 2.74,13.01 0.93,19.82 -4.72,17.63 -22.86,28.08 -40.44,23.36 -17.621,-4.72 -28.102,-22.83 -23.363,-40.45 4.707,-17.62 22.843,-28.06 40.453,-23.35 4.89,1.3 9.14,3.72 12.76,6.8 156.63,-102.84 260.12,-279.953 260.12,-481.32 0,-317.859 -257.68,-575.551 -575.56,-575.551 -93.047,0 -180.891,22.172 -258.645,61.391 -3.14,-4.719 -6.304,-9.449 -9.453,-14.168 C 532.41,150.711 623.484,127.52 720,127.52 c 327.21,0 592.46,265.261 592.46,592.48 0,207.117 -106.36,389.25 -267.36,495.14"
         style="fill:#f0401e;fill-opacity:1;fill-rule:nonzero;stroke:none"
         id="path8127"
         inkscape:connector-curvature="0" /><path
         d="m 1017.59,1211.46 c -8.45,-2.25 -17.15,2.75 -19.406,11.22 -2.266,8.46 2.746,17.14 11.196,19.4 8.46,2.28 17.15,-2.74 19.42,-11.2 2.26,-8.46 -2.74,-17.15 -11.21,-19.42 z m 27.51,3.68 c 2.25,6.15 2.74,13.01 0.93,19.82 -4.72,17.63 -22.86,28.08 -40.44,23.36 -17.621,-4.72 -28.102,-22.83 -23.363,-40.45 4.707,-17.62 22.843,-28.06 40.453,-23.35 4.89,1.3 9.14,3.72 12.76,6.8 156.63,-102.84 260.12,-279.953 260.12,-481.32 0,-317.859 -257.68,-575.551 -575.56,-575.551 -93.047,0 -180.891,22.172 -258.645,61.391 -3.14,-4.719 -6.304,-9.449 -9.453,-14.168 C 532.41,150.711 623.484,127.52 720,127.52 c 327.21,0 592.46,265.261 592.46,592.48 0,207.117 -106.36,389.25 -267.36,495.14 z"
         style="fill:none;stroke:#f0401e;stroke-width:10;stroke-linecap:round;stroke-linejoin:round;stroke-miterlimit:10;stroke-dasharray:none;stroke-opacity:1"
         id="path8129"
         inkscape:connector-curvature="0" /><path
         d="m 396.172,246.512 c 8.457,2.277 17.148,-2.75 19.414,-11.192 2.285,-8.461 -2.742,-17.148 -11.199,-19.429 -8.442,-2.25 -17.141,2.75 -19.414,11.218 -2.258,8.45 2.754,17.153 11.199,19.403 z M 720,1312.48 c -327.207,0 -592.461,-265.26 -592.461,-592.48 0,-196.227 95.422,-370.102 242.371,-477.922 -2.222,-6.137 -2.722,-12.976 -0.894,-19.777 4.714,-17.61 22.82,-28.071 40.437,-23.34 17.61,4.719 28.059,22.809 23.36,40.43 -4.739,17.629 -22.84,28.078 -40.442,23.359 -4.883,-1.32 -9.148,-3.719 -12.762,-6.789 C 237.051,360.711 144.453,529.516 144.453,720 c 0,317.86 257.688,575.55 575.547,575.55 80.527,0 157.168,-16.6 226.738,-46.46 l 9.524,14.29 c -72.407,31.51 -152.246,49.1 -236.262,49.1"
         style="fill:#f0401e;fill-opacity:1;fill-rule:nonzero;stroke:none"
         id="path8131"
         inkscape:connector-curvature="0" /><path
         d="m 396.172,246.512 c 8.457,2.277 17.148,-2.75 19.414,-11.192 2.285,-8.461 -2.742,-17.148 -11.199,-19.429 -8.442,-2.25 -17.141,2.75 -19.414,11.218 -2.258,8.45 2.754,17.153 11.199,19.403 z M 720,1312.48 c -327.207,0 -592.461,-265.26 -592.461,-592.48 0,-196.227 95.422,-370.102 242.371,-477.922 -2.222,-6.137 -2.722,-12.976 -0.894,-19.777 4.714,-17.61 22.82,-28.071 40.437,-23.34 17.61,4.719 28.059,22.809 23.36,40.43 -4.739,17.629 -22.84,28.078 -40.442,23.359 -4.883,-1.32 -9.148,-3.719 -12.762,-6.789 C 237.051,360.711 144.453,529.516 144.453,720 c 0,317.86 257.688,575.55 575.547,575.55 80.527,0 157.168,-16.6 226.738,-46.46 l 9.524,14.29 c -72.407,31.51 -152.246,49.1 -236.262,49.1 z"
         style="fill:none;stroke:#f0401e;stroke-width:10;stroke-linecap:round;stroke-linejoin:round;stroke-miterlimit:10;stroke-dasharray:none;stroke-opacity:1"
         id="path8133"
         inkscape:connector-curvature="0" /><path
         d="m 923.801,1045.54 c -8.442,-2.26 -17.141,2.75 -19.406,11.21 -2.266,8.46 2.773,17.15 11.179,19.4 8.469,2.28 17.18,-2.75 19.438,-11.19 2.261,-8.47 -2.746,-17.15 -11.211,-19.42 z M 911.34,735.023 c 0,-12.972 -5.024,-27.699 -15.024,-44.187 -8.25,-13.566 -18.257,-26.223 -30.046,-38.004 -11.805,-11.797 -24.903,-21.953 -39.317,-30.488 -14.465,-8.555 -29.765,-15.336 -45.969,-20.332 -16.226,-5.016 -32.566,-7.504 -49.043,-7.504 -28.281,0 -54.785,6.035 -79.531,18.113 -24.734,12.067 -46.258,28.281 -64.527,48.609 -18.274,20.329 -32.695,43.594 -43.293,69.809 -10.625,26.211 -15.906,53.762 -15.906,82.637 0,25.926 4.414,51.992 13.25,78.215 8.836,26.207 21.484,49.781 37.988,70.699 16.496,20.906 36.824,38 60.984,51.26 24.16,13.26 51.836,19.88 83.078,19.88 19.446,0 38.875,-3.39 58.329,-10.16 19.445,-6.78 37.394,-16.06 53.898,-27.832 16.516,-11.8 31.379,-25.789 44.641,-41.988 13.242,-16.211 23.418,-34.027 30.488,-53.473 z M 551.199,480.277 c -8.426,-2.25 -17.136,2.75 -19.39,11.215 -2.289,8.449 2.761,17.141 11.211,19.403 8.457,2.273 17.148,-2.747 19.414,-11.2 2.246,-8.461 -2.766,-17.144 -11.235,-19.418 z m 401.047,588.753 c -4.734,17.63 -22.859,28.07 -40.449,23.35 -17.625,-4.72 -28.074,-22.81 -23.359,-40.45 3.105,-11.62 12.097,-20 22.902,-23.09 v -91.442 c -11.203,15.915 -23.274,30.786 -36.223,44.633 -12.976,13.832 -27.258,25.919 -42.871,36.239 -15.613,10.3 -32.41,18.41 -50.359,24.3 -18.008,5.88 -37.297,8.84 -57.903,8.84 -31.242,0 -59.953,-6.63 -86.164,-19.89 -26.218,-13.25 -48.75,-30.93 -67.593,-53.024 -18.899,-22.101 -33.45,-47.433 -43.762,-76 -10.32,-28.586 -15.469,-58.195 -15.469,-88.82 0,-29.465 5.449,-58.332 16.367,-86.606 10.879,-28.281 26.192,-53.617 45.938,-76.007 19.726,-22.391 43.152,-40.36 70.254,-53.911 27.09,-13.543 56.574,-20.32 88.386,-20.32 17.668,0 35.032,2.508 52.122,7.508 17.109,5 33.437,12.223 49.062,21.644 15.605,9.43 30.059,20.477 43.313,33.141 13.25,12.668 24.871,26.652 34.902,41.988 V 566.227 c 0,-26.504 -4.875,-49.633 -14.582,-69.379 -9.738,-19.735 -22.988,-36.375 -39.766,-49.938 -16.797,-13.539 -36.394,-23.699 -58.777,-30.48 -22.395,-6.77 -46.242,-10.18 -71.574,-10.18 -37.121,0 -72.024,7.52 -104.739,22.539 -20.711,9.52 -38.609,23.027 -53.765,40.469 10.054,7.922 15.008,21.344 11.504,34.515 -4.719,17.622 -22.832,28.082 -40.442,23.352 -17.617,-4.715 -28.078,-22.816 -23.347,-40.449 4.246,-15.848 19.316,-25.774 35.144,-24.211 13.633,-17 29.727,-31.637 48.391,-43.836 30.625,-20.008 73.035,-30.039 127.254,-30.039 25.918,0 51.113,3.531 75.566,10.601 24.434,7.059 46.094,17.981 64.941,32.688 18.848,14.742 33.875,33.309 45.086,55.695 11.164,22.391 16.782,48.598 16.782,78.653 v 462.413 c 17.527,4.77 27.918,22.82 23.23,40.39"
         style="fill:#f0401e;fill-opacity:1;fill-rule:nonzero;stroke:none"
         id="path8135"
         inkscape:connector-curvature="0" /><path
         d="m 923.801,1045.54 c -8.442,-2.26 -17.141,2.75 -19.406,11.21 -2.266,8.46 2.773,17.15 11.179,19.4 8.469,2.28 17.18,-2.75 19.438,-11.19 2.261,-8.47 -2.746,-17.15 -11.211,-19.42 z M 911.34,735.023 c 0,-12.972 -5.024,-27.699 -15.024,-44.187 -8.25,-13.566 -18.257,-26.223 -30.046,-38.004 -11.805,-11.797 -24.903,-21.953 -39.317,-30.488 -14.465,-8.555 -29.765,-15.336 -45.969,-20.332 -16.226,-5.016 -32.566,-7.504 -49.043,-7.504 -28.281,0 -54.785,6.035 -79.531,18.113 -24.734,12.067 -46.258,28.281 -64.527,48.609 -18.274,20.329 -32.695,43.594 -43.293,69.809 -10.625,26.211 -15.906,53.762 -15.906,82.637 0,25.926 4.414,51.992 13.25,78.215 8.836,26.207 21.484,49.781 37.988,70.699 16.496,20.906 36.824,38 60.984,51.26 24.16,13.26 51.836,19.88 83.078,19.88 19.446,0 38.875,-3.39 58.329,-10.16 19.445,-6.78 37.394,-16.06 53.898,-27.832 16.516,-11.8 31.379,-25.789 44.641,-41.988 13.242,-16.211 23.418,-34.027 30.488,-53.473 z M 551.199,480.277 c -8.426,-2.25 -17.136,2.75 -19.39,11.215 -2.289,8.449 2.761,17.141 11.211,19.403 8.457,2.273 17.148,-2.747 19.414,-11.2 2.246,-8.461 -2.766,-17.144 -11.235,-19.418 z m 401.047,588.753 c -4.734,17.63 -22.859,28.07 -40.449,23.35 -17.625,-4.72 -28.074,-22.81 -23.359,-40.45 3.105,-11.62 12.097,-20 22.902,-23.09 v -91.442 c -11.203,15.915 -23.274,30.786 -36.223,44.633 -12.976,13.832 -27.258,25.919 -42.871,36.239 -15.613,10.3 -32.41,18.41 -50.359,24.3 -18.008,5.88 -37.297,8.84 -57.903,8.84 -31.242,0 -59.953,-6.63 -86.164,-19.89 -26.218,-13.25 -48.75,-30.93 -67.593,-53.024 -18.899,-22.101 -33.45,-47.433 -43.762,-76 -10.32,-28.586 -15.469,-58.195 -15.469,-88.82 0,-29.465 5.449,-58.332 16.367,-86.606 10.879,-28.281 26.192,-53.617 45.938,-76.007 19.726,-22.391 43.152,-40.36 70.254,-53.911 27.09,-13.543 56.574,-20.32 88.386,-20.32 17.668,0 35.032,2.508 52.122,7.508 17.109,5 33.437,12.223 49.062,21.644 15.605,9.43 30.059,20.477 43.313,33.141 13.25,12.668 24.871,26.652 34.902,41.988 V 566.227 c 0,-26.504 -4.875,-49.633 -14.582,-69.379 -9.738,-19.735 -22.988,-36.375 -39.766,-49.938 -16.797,-13.539 -36.394,-23.699 -58.777,-30.48 -22.395,-6.77 -46.242,-10.18 -71.574,-10.18 -37.121,0 -72.024,7.52 -104.739,22.539 -20.711,9.52 -38.609,23.027 -53.765,40.469 10.054,7.922 15.008,21.344 11.504,34.515 -4.719,17.622 -22.832,28.082 -40.442,23.352 -17.617,-4.715 -28.078,-22.816 -23.347,-40.449 4.246,-15.848 19.316,-25.774 35.144,-24.211 13.633,-17 29.727,-31.637 48.391,-43.836 30.625,-20.008 73.035,-30.039 127.254,-30.039 25.918,0 51.113,3.531 75.566,10.601 24.434,7.059 46.094,17.981 64.941,32.688 18.848,14.742 33.875,33.309 45.086,55.695 11.164,22.391 16.782,48.598 16.782,78.653 v 462.413 c 17.527,4.77 27.918,22.82 23.23,40.39 z"
         style="fill:none;stroke:#f0401e;stroke-width:10;stroke-linecap:round;stroke-linejoin:round;stroke-miterlimit:10;stroke-dasharray:none;stroke-opacity:1"
         id="path8137"
         inkscape:connector-curvature="0" /></g></g></svg>