<?xml version="1.0" encoding="UTF-8" standalone="no"?>
<!-- Created with Inkscape (http://www.inkscape.org/) -->

<svg
   xmlns:dc="http://purl.org/dc/elements/1.1/"
   xmlns:cc="http://creativecommons.org/ns#"
   xmlns:rdf="http://www.w3.org/1999/02/22-rdf-syntax-ns#"
   xmlns:svg="http://www.w3.org/2000/svg"
   xmlns="http://www.w3.org/2000/svg"
   xmlns:sodipodi="http://sodipodi.sourceforge.net/DTD/sodipodi-0.dtd"
   xmlns:inkscape="http://www.inkscape.org/namespaces/inkscape"
   version="1.1"
   id="svg8682"
   xml:space="preserve"
   width="370.27332"
   height="51.782799"
   viewBox="0 0 370.27332 51.782798"
   sodipodi:docname="logo.svg"
   inkscape:version="0.92.3 (2405546, 2018-03-11)"><metadata
     id="metadata8688"><rdf:RDF><cc:Work
         rdf:about=""><dc:format>image/svg+xml</dc:format><dc:type
           rdf:resource="http://purl.org/dc/dcmitype/StillImage" /><dc:title></dc:title></cc:Work></rdf:RDF></metadata><defs
     id="defs8686" /><sodipodi:namedview
     pagecolor="#ffffff"
     bordercolor="#666666"
     borderopacity="1"
     objecttolerance="10"
     gridtolerance="10"
     guidetolerance="10"
     inkscape:pageopacity="0"
     inkscape:pageshadow="2"
     inkscape:window-width="1920"
     inkscape:window-height="1177"
     id="namedview8684"
     showgrid="false"
     inkscape:zoom="1.2985649"
     inkscape:cx="170.16387"
     inkscape:cy="53.89317"
     inkscape:window-x="-8"
     inkscape:window-y="2"
     inkscape:window-maximized="1"
     inkscape:current-layer="g8692" /><g
     id="g8690"
     inkscape:groupmode="layer"
     inkscape:label="ink_ext_XXXXXX"
     transform="matrix(1.3333333,0,0,-1.3333333,0,51.782799)"><g
       id="g8692"
       transform="scale(0.1)"><path
         d="M 1892.42,388.371 1704.89,99.5703 h -16.27 l 187.11,288.8007 h 16.69"
         style="fill:#f0401e;fill-opacity:1;fill-rule:nonzero;stroke:none"
         id="path8700"
         inkscape:connector-curvature="0" /><path
         d="m 1946.04,107.309 c 17.08,0 32.66,3.171 46.77,9.543 14.09,6.378 24.67,14.988 31.73,25.839 4.34,5.688 6.5,11.11 6.5,16.27 v 39.859 c -20.87,8.149 -43.38,12.2 -67.51,12.2 -22.52,0 -40.61,-4.532 -54.31,-13.629 -13.69,-9.082 -20.55,-21.211 -20.55,-36.403 0,-7.597 1.5,-14.636 4.48,-21.148 2.97,-6.508 6.98,-12.199 12.01,-17.078 5.01,-4.891 11.04,-8.68 18.09,-11.403 7.05,-2.711 14.64,-4.05 22.79,-4.05 z m -2.05,-11.7973 c -9.75,0 -18.84,1.6875 -27.24,5.0783 -8.41,3.379 -15.72,8 -21.97,13.84 -6.24,5.808 -11.12,12.66 -14.64,20.531 -3.53,7.871 -5.3,16.398 -5.3,25.629 0,8.949 2.18,17.148 6.52,24.609 4.32,7.449 10.37,13.903 18.1,19.321 7.72,5.421 16.94,9.621 27.66,12.609 10.7,2.992 22.58,4.48 35.59,4.48 11.66,0 23.6,-0.961 35.8,-2.859 12.2,-1.891 23.04,-4.738 32.53,-8.531 V 233 c 0,21.141 -6.03,38.02 -18.09,50.641 -12.06,12.597 -28.27,18.91 -48.62,18.91 -10.31,0 -21.21,-2.242 -32.74,-6.719 -11.52,-4.473 -23.25,-10.91 -35.18,-19.312 l -6.52,10.16 c 27.4,18.441 52.48,27.66 75.26,27.66 24.68,0 44.14,-7.309 58.38,-21.949 14.21,-14.661 21.34,-34.719 21.34,-60.219 V 121.551 c 0,-5.973 2.44,-8.961 7.33,-8.961 V 99.5703 c -0.82,-0.2617 -1.9,-0.3984 -3.26,-0.3984 -4.61,0 -8.6,1.6801 -12,5.0781 -3.4,3.391 -5.08,7.52 -5.08,12.398 v 18.711 c -9.5,-12.738 -22.03,-22.558 -37.63,-29.48 -15.59,-6.9181 -32.35,-10.3673 -50.24,-10.3673"
         style="fill:#f0401e;fill-opacity:1;fill-rule:nonzero;stroke:none"
         id="path8702"
         inkscape:connector-curvature="0" /><path
         d="m 2215.71,108.52 c 13.01,0 24.82,2.789 35.39,8.332 10.57,5.57 19.53,12.886 26.84,21.98 7.32,9.078 13.03,19.387 17.1,30.906 4.07,11.524 6.09,23.25 6.09,35.192 0,12.468 -2.31,24.531 -6.9,36.199 -4.62,11.66 -10.92,21.961 -18.93,30.91 -8,8.961 -17.42,16.07 -28.26,21.359 -10.86,5.282 -22.52,7.922 -34.98,7.922 -7.88,0 -16.29,-1.679 -25.23,-5.082 -8.95,-3.398 -17.28,-7.867 -25.01,-13.429 -7.73,-5.539 -14.23,-12 -19.53,-19.297 -5.29,-7.34 -8.33,-15.063 -9.15,-23.192 V 167.5 c 3.53,-8.141 8.14,-15.789 13.83,-22.98 5.7,-7.18 12.14,-13.43 19.33,-18.711 7.17,-5.289 14.97,-9.489 23.38,-12.61 8.41,-3.117 17.09,-4.679 26.03,-4.679 z m 2.04,-13.0083 c -9.22,0 -17.97,1.3477 -26.24,4.0586 -8.28,2.7107 -16,6.3787 -23.19,10.9887 -7.19,4.601 -13.76,10.031 -19.72,16.269 -5.97,6.242 -11.12,12.883 -15.46,19.922 V 12.9219 h -13.83 V 311.078 h 13.02 V 267.16 c 4.34,6.781 9.48,13.078 15.45,18.91 5.96,5.84 12.54,10.852 19.73,15.071 7.19,4.179 14.64,7.437 22.37,9.757 7.74,2.293 15.66,3.442 23.8,3.442 14.91,0 28.61,-3.121 41.1,-9.352 12.46,-6.238 23.16,-14.508 32.12,-24.808 8.95,-10.309 15.92,-22.039 20.95,-35.18 5.01,-13.16 7.53,-26.512 7.53,-40.07 0,-14.66 -2.38,-28.621 -7.13,-41.899 -4.74,-13.293 -11.38,-24.902 -19.93,-34.793 -8.53,-9.886 -18.78,-17.828 -30.71,-23.789 -11.94,-5.9607 -25.22,-8.9373 -39.86,-8.9373"
         style="fill:#f0401e;fill-opacity:1;fill-rule:nonzero;stroke:none"
         id="path8704"
         inkscape:connector-curvature="0" /><path
         d="m 2472.39,108.52 c 13.01,0 24.81,2.789 35.38,8.332 10.58,5.57 19.52,12.886 26.85,21.98 7.32,9.078 13.03,19.387 17.09,30.906 4.07,11.524 6.09,23.25 6.09,35.192 0,12.468 -2.3,24.531 -6.9,36.199 -4.62,11.66 -10.92,21.961 -18.92,30.91 -8.01,8.961 -17.43,16.07 -28.27,21.359 -10.85,5.282 -22.51,7.922 -34.98,7.922 -7.88,0 -16.28,-1.679 -25.22,-5.082 -8.95,-3.398 -17.29,-7.867 -25.02,-13.429 -7.72,-5.539 -14.22,-12 -19.53,-19.297 -5.29,-7.34 -8.33,-15.063 -9.15,-23.192 V 167.5 c 3.53,-8.141 8.15,-15.789 13.83,-22.98 5.71,-7.18 12.14,-13.43 19.33,-18.711 7.18,-5.289 14.97,-9.489 23.39,-12.61 8.4,-3.117 17.08,-4.679 26.03,-4.679 z m 2.03,-13.0083 c -9.21,0 -17.96,1.3477 -26.24,4.0586 -8.28,2.7107 -16,6.3787 -23.19,10.9887 -7.19,4.601 -13.75,10.031 -19.72,16.269 -5.96,6.242 -11.12,12.883 -15.46,19.922 V 12.9219 h -13.83 V 311.078 H 2389 V 267.16 c 4.34,6.781 9.49,13.078 15.46,18.91 5.96,5.84 12.54,10.852 19.73,15.071 7.18,4.179 14.63,7.437 22.36,9.757 7.74,2.293 15.67,3.442 23.81,3.442 14.9,0 28.6,-3.121 41.08,-9.352 12.48,-6.238 23.18,-14.508 32.14,-24.808 8.95,-10.309 15.92,-22.039 20.94,-35.18 5.02,-13.16 7.52,-26.512 7.52,-40.07 0,-14.66 -2.36,-28.621 -7.11,-41.899 -4.74,-13.293 -11.39,-24.902 -19.94,-34.793 -8.53,-9.886 -18.77,-17.828 -30.7,-23.789 -11.94,-5.9607 -25.22,-8.9373 -39.87,-8.9373"
         style="fill:#f0401e;fill-opacity:1;fill-rule:nonzero;stroke:none"
         id="path8706"
         inkscape:connector-curvature="0" /><path
         d="m 2697.32,95.5117 c -16.27,0 -31.47,2.6992 -45.55,8.1293 -14.12,5.429 -26.58,13.828 -37.42,25.218 l 7.71,9.36 c 11.39,-10.309 23.07,-18.028 35,-23.188 11.91,-5.16 25.22,-7.722 39.84,-7.722 19.8,0 35.81,4.179 48.01,12.613 12.21,8.398 18.31,20.187 18.31,35.379 0,7.051 -1.57,12.949 -4.68,17.687 -3.12,4.75 -7.67,8.821 -13.63,12.211 -5.97,3.391 -13.36,6.371 -22.17,8.942 -8.81,2.589 -18.9,5.23 -30.3,7.949 -11.67,2.691 -21.76,5.332 -30.3,7.922 -8.56,2.57 -15.67,5.617 -21.35,9.136 -5.71,3.532 -9.91,8.012 -12.62,13.434 -2.71,5.43 -4.06,12.34 -4.06,20.75 0,10.578 2.02,19.656 6.1,27.258 4.06,7.582 9.55,13.879 16.47,18.922 6.9,5.008 14.91,8.726 24,11.168 9.08,2.441 18.78,3.66 29.09,3.66 17.08,0 31.78,-2.84 44.13,-8.531 12.34,-5.7 21.34,-12.887 27.05,-21.559 l -9.36,-6.93 c -5.97,8.149 -14.71,14.371 -26.24,18.719 -11.53,4.34 -23.8,6.512 -36.81,6.512 -8.4,0 -16.26,-0.879 -23.59,-2.641 -7.32,-1.762 -13.77,-4.609 -19.32,-8.551 -5.56,-3.929 -9.96,-8.879 -13.22,-14.839 -3.26,-5.969 -4.89,-13.008 -4.89,-21.149 0,-6.5 1.08,-11.949 3.27,-16.281 2.16,-4.328 5.61,-7.93 10.35,-10.781 4.75,-2.829 10.73,-5.289 17.91,-7.309 7.18,-2.051 15.92,-4.27 26.23,-6.719 13.02,-2.992 24.55,-5.972 34.57,-8.941 10.04,-2.988 18.59,-6.52 25.64,-10.578 7.06,-4.071 12.4,-9.102 16.06,-15.051 3.66,-5.973 5.5,-13.57 5.5,-22.789 0,-9.492 -1.9,-17.961 -5.69,-25.434 -3.8,-7.449 -9.16,-13.886 -16.08,-19.297 -6.91,-5.441 -15.31,-9.562 -25.22,-12.4097 -9.89,-2.8516 -20.81,-4.2696 -32.74,-4.2696"
         style="fill:#f0401e;fill-opacity:1;fill-rule:nonzero;stroke:none"
         id="path8708"
         inkscape:connector-curvature="0" /><path
         d="m 111.465,126.512 c 6.777,0 13.281,1.148 19.519,3.449 6.235,2.309 12.004,5.43 17.286,9.359 5.293,3.942 9.828,8.399 13.625,13.43 3.796,5.012 6.503,10.371 8.132,16.051 v 55.75 c -5.425,13.539 -13.828,24.59 -25.214,33.14 -11.383,8.539 -23.59,12.797 -36.598,12.797 -9.7775,0 -18.508,-2.09 -26.2423,-6.289 -7.7344,-4.219 -14.3086,-9.758 -19.7383,-16.679 -5.4297,-6.918 -9.6289,-14.711 -12.6055,-23.391 -2.9766,-8.68 -4.4726,-17.629 -4.4726,-26.84 0,-9.758 1.6875,-18.91 5.0859,-27.469 3.3906,-8.539 8.0586,-16 14.0351,-22.359 5.9571,-6.383 12.9493,-11.461 20.9454,-15.262 8,-3.801 16.7303,-5.687 26.2423,-5.687 z M 96.8047,90.3086 c -14.375,0 -27.4492,2.9219 -39.2344,8.7422 C 45.7617,104.879 35.5938,112.809 27.0586,122.859 18.5078,132.879 11.8633,144.398 7.11719,157.422 2.375,170.43 0,184.129 0,198.52 c 0,15.171 2.375,29.48 7.11719,42.91 4.74611,13.41 11.45701,25.058 20.14061,34.968 8.6797,9.891 19.0508,17.762 31.1211,23.59 12.0625,5.844 25.418,8.742 40.0586,8.742 17.3635,0 32.4025,-4.058 45.1485,-12.191 12.754,-8.141 23.328,-18.707 31.734,-31.73 v 40.273 h 39.453 V 98.4414 c 0,-15.4609 -2.847,-29.1523 -8.543,-41.082 C 200.535,45.4297 192.605,35.332 182.441,27.0586 172.266,18.7891 160.273,12.4688 146.445,8.14063 132.617,3.80078 117.695,1.62891 101.688,1.62891 c -23.5825,0 -43.1021,4 -58.563,11.99999 C 27.6758,21.6406 14.5117,32.8203 3.67188,47.1992 L 28.8867,70.7695 c 8.1367,-11.3906 18.6446,-20.0507 31.5235,-26.0312 12.8789,-5.9492 26.6406,-8.9297 41.2778,-8.9297 9.23,0 17.96,1.2109 26.242,3.6523 8.269,2.4375 15.527,6.2383 21.765,11.3907 6.243,5.1484 11.184,11.6484 14.836,19.5195 3.672,7.8672 5.496,17.2305 5.496,28.0703 V 130.988 C 162.441,117.969 152.004,107.922 138.711,100.879 125.43,93.832 111.465,90.3086 96.8047,90.3086"
         style="fill:#f0401e;fill-opacity:1;fill-rule:nonzero;stroke:none"
         id="path8710"
         inkscape:connector-curvature="0" /><path
         d="m 346.973,121.23 c 10.847,0 21.086,1.942 30.715,5.891 9.617,3.918 17.148,9.418 22.578,16.469 5.691,4.879 8.535,10.039 8.535,15.449 v 28.07 c -7.59,2.981 -15.656,5.301 -24.211,6.922 -8.535,1.629 -16.875,2.438 -25.012,2.438 -16.004,0 -29.082,-3.449 -39.246,-10.367 -10.176,-6.922 -15.254,-16.071 -15.254,-27.461 0,-10.582 3.926,-19.469 11.785,-26.641 7.871,-7.199 17.91,-10.77 30.11,-10.77 z m -12.2,-32.9605 c -10.32,0 -19.863,1.6993 -28.679,5.0899 -8.821,3.3906 -16.414,8.0506 -22.774,14.0316 -6.379,5.968 -11.386,13.007 -15.058,21.14 -3.66,8.141 -5.489,16.949 -5.489,26.457 0,10.032 2.168,19.114 6.504,27.242 4.336,8.141 10.508,15.192 18.504,21.161 8.008,5.949 17.5,10.558 28.489,13.82 10.976,3.25 23.105,4.879 36.398,4.879 10.027,0 19.937,-0.879 29.695,-2.641 9.766,-1.758 18.567,-4.129 26.438,-7.121 v 14.641 c 0,15.73 -4.477,28 -13.418,36.832 -8.945,8.801 -21.828,13.219 -38.645,13.219 -11.386,0 -22.578,-2.11 -33.562,-6.309 -10.981,-4.223 -22.309,-10.25 -33.965,-18.109 l -13.828,28.476 c 27.39,18.434 55.855,27.652 85.418,27.652 29.289,0 52.07,-7.46 68.34,-22.371 16.269,-14.91 24.406,-36.339 24.406,-64.269 v -76.879 c 0,-5.152 0.945,-8.813 2.848,-10.973 1.898,-2.179 5.148,-3.398 9.765,-3.66 V 92.3398 c -4.344,-0.8203 -8.347,-1.3515 -12,-1.621 -3.672,-0.2696 -6.992,-0.4102 -9.972,-0.4102 -8.68,0.543 -15.262,2.832 -19.723,6.9219 -4.485,4.0505 -7.258,9.4805 -8.332,16.2695 l -1.231,13.41 C 405.41,114.441 393.691,104.879 379.719,98.2383 365.754,91.6016 350.762,88.2695 334.773,88.2695"
         style="fill:#f0401e;fill-opacity:1;fill-rule:nonzero;stroke:none"
         id="path8712"
         inkscape:connector-curvature="0" /><path
         d="m 634.148,103.32 c -5.964,-2.711 -13.894,-5.7614 -23.789,-9.1481 -9.91,-3.4024 -20.679,-5.0821 -32.339,-5.0821 -7.051,0 -13.625,0.9493 -19.727,2.8399 -6.098,1.9023 -11.535,4.7305 -16.273,8.5503 -4.747,3.79 -8.485,8.75 -11.192,14.84 -2.715,6.102 -4.058,13.481 -4.058,22.168 v 133 h -28.469 v 34.594 h 28.469 v 69.949 h 44.746 v -69.949 h 46.367 V 270.488 H 571.516 V 151.719 c 0,-7.578 2.156,-13.078 6.504,-16.469 4.335,-3.379 9.617,-5.09 15.859,-5.09 6.238,0 12.195,1.09 17.906,3.262 5.695,2.168 9.895,3.93 12.602,5.289 l 9.761,-35.391"
         style="fill:#f0401e;fill-opacity:1;fill-rule:nonzero;stroke:none"
         id="path8714"
         inkscape:connector-curvature="0" /><path
         d="m 835.09,214.781 c -0.82,8.938 -3.047,17.219 -6.711,24.801 -3.672,7.609 -8.34,14.047 -14.031,19.34 -5.696,5.277 -12.344,9.41 -19.934,12.398 -7.598,2.989 -15.605,4.481 -24.004,4.481 -8.406,0 -16.34,-1.492 -23.801,-4.481 -7.449,-2.988 -14.031,-7.121 -19.722,-12.398 -5.696,-5.293 -10.305,-11.731 -13.828,-19.34 -3.539,-7.582 -5.696,-15.863 -6.504,-24.801 z M 770.41,88.2695 c -16.543,0 -31.594,2.9219 -45.144,8.7422 -13.567,5.8403 -25.168,13.7693 -34.778,23.7973 -9.629,10.031 -17.082,21.703 -22.383,34.98 -5.292,13.281 -7.929,27.391 -7.929,42.313 0,14.91 2.637,29.078 7.929,42.5 5.301,13.437 12.754,25.218 22.383,35.386 9.61,10.172 21.211,18.172 34.778,24 13.55,5.844 28.726,8.742 45.554,8.742 16.543,0 31.524,-2.98 44.942,-8.941 13.426,-5.957 24.883,-13.91 34.375,-23.801 9.492,-9.898 16.75,-21.418 21.765,-34.558 5.012,-13.168 7.524,-26.93 7.524,-41.289 0,-3.25 -0.141,-6.321 -0.403,-9.161 -0.285,-2.839 -0.546,-5.23 -0.82,-7.121 H 707.766 c 0.82,-9.5 3.054,-18.039 6.714,-25.609 3.665,-7.609 8.411,-14.191 14.231,-19.738 5.832,-5.563 12.473,-9.84 19.941,-12.821 7.453,-2.98 15.254,-4.461 23.391,-4.461 5.953,0 11.852,0.731 17.691,2.231 5.825,1.48 11.184,3.66 16.067,6.5 4.883,2.859 9.219,6.309 13.015,10.379 3.801,4.058 6.77,8.539 8.95,13.422 l 38.242,-10.981 c -7.324,-16 -19.477,-29.082 -36.406,-39.261 C 812.637,93.3594 792.922,88.2695 770.41,88.2695"
         style="fill:#f0401e;fill-opacity:1;fill-rule:nonzero;stroke:none"
         id="path8716"
         inkscape:connector-curvature="0" /><path
         d="m 1185.72,305.082 h 42.72 l -89.9,-212.7422 h -36.61 L 1062.07,191.18 1022.62,92.3398 H 985.605 L 896.113,305.082 h 42.293 l 68.744,-169.633 30.93,78.922 -37.03,90.301 h 36.61 l 24.41,-66.711 24.4,66.711 h 36.61 l -36.61,-90.301 30.91,-78.922 68.34,169.633"
         style="fill:#f0401e;fill-opacity:1;fill-rule:nonzero;stroke:none"
         id="path8718"
         inkscape:connector-curvature="0" /><path
         d="m 1331.77,121.23 c 10.84,0 21.07,1.942 30.7,5.891 9.62,3.918 17.15,9.418 22.58,16.469 5.69,4.879 8.53,10.039 8.53,15.449 v 28.07 c -7.58,2.981 -15.65,5.301 -24.2,6.922 -8.53,1.629 -16.88,2.438 -25.01,2.438 -16.01,0 -29.09,-3.449 -39.25,-10.367 -10.17,-6.922 -15.26,-16.071 -15.26,-27.461 0,-10.582 3.93,-19.469 11.79,-26.641 7.87,-7.199 17.91,-10.77 30.12,-10.77 z m -12.21,-32.9605 c -10.32,0 -19.86,1.6993 -28.68,5.0899 -8.81,3.3906 -16.42,8.0506 -22.77,14.0316 -6.38,5.968 -11.39,13.007 -15.06,21.14 -3.67,8.141 -5.49,16.949 -5.49,26.457 0,10.032 2.17,19.114 6.5,27.242 4.34,8.141 10.51,15.192 18.51,21.161 8.01,5.949 17.5,10.558 28.48,13.82 10.98,3.25 23.11,4.879 36.41,4.879 10.02,0 19.93,-0.879 29.69,-2.641 9.76,-1.758 18.56,-4.129 26.43,-7.121 v 14.641 c 0,15.73 -4.47,28 -13.41,36.832 -8.95,8.801 -21.83,13.219 -38.65,13.219 -11.38,0 -22.57,-2.11 -33.56,-6.309 -10.98,-4.223 -22.31,-10.25 -33.97,-18.109 l -13.82,28.476 c 27.39,18.434 55.86,27.652 85.43,27.652 29.27,0 52.07,-7.46 68.33,-22.371 16.27,-14.91 24.4,-36.339 24.4,-64.269 v -76.879 c 0,-5.152 0.95,-8.813 2.85,-10.973 1.9,-2.179 5.15,-3.398 9.77,-3.66 V 92.3398 c -4.36,-0.8203 -8.35,-1.3515 -12,-1.621 -3.68,-0.2696 -6.99,-0.4102 -9.98,-0.4102 -8.69,0.543 -15.25,2.832 -19.72,6.9219 -4.48,4.0505 -7.26,9.4805 -8.34,16.2695 l -1.22,13.41 c -9.49,-12.469 -21.21,-22.031 -35.19,-28.6717 -13.96,-6.6367 -28.95,-9.9688 -44.94,-9.9688"
         style="fill:#f0401e;fill-opacity:1;fill-rule:nonzero;stroke:none"
         id="path8720"
         inkscape:connector-curvature="0" /><path
         d="m 1501.77,41.8984 c 3.81,-0.8086 7.32,-1.3398 10.59,-1.6289 3.26,-0.2578 6.22,-0.4101 8.95,-0.4101 3.52,0 6.64,0.4101 9.34,1.2304 2.72,0.8086 5.37,2.8985 7.93,6.2891 2.58,3.4024 5.43,8.6211 8.56,15.6719 3.1,7.0508 6.83,16.8086 11.19,29.289 l -87.05,212.7422 h 45.96 l 65.89,-173.293 58.58,173.293 h 42.3 L 1586.8,43.1094 C 1581.37,28.4805 1573.23,17.6289 1562.39,10.5781 1551.53,3.53906 1538.93,0 1524.56,0 c -7.87,0 -15.47,1.07813 -22.79,3.26172 V 41.8984"
         style="fill:#f0401e;fill-opacity:1;fill-rule:nonzero;stroke:none"
         id="path8722"
         inkscape:connector-curvature="0" /></g></g></svg>