<?xml version="1.0" encoding="UTF-8" standalone="no"?>
<!-- Created with Inkscape (http://www.inkscape.org/) -->

<svg
   xmlns:dc="http://purl.org/dc/elements/1.1/"
   xmlns:cc="http://creativecommons.org/ns#"
   xmlns:rdf="http://www.w3.org/1999/02/22-rdf-syntax-ns#"
   xmlns:svg="http://www.w3.org/2000/svg"
   xmlns="http://www.w3.org/2000/svg"
   xmlns:sodipodi="http://sodipodi.sourceforge.net/DTD/sodipodi-0.dtd"
   xmlns:inkscape="http://www.inkscape.org/namespaces/inkscape"
   version="1.1"
   id="svg4518"
   xml:space="preserve"
   width="2665.2268"
   height="2168.3333"
   viewBox="0 0 2665.2268 2168.3333"
   sodipodi:docname="shutterstock_565592557.svg"
   inkscape:version="0.92.3 (2405546, 2018-03-11)"><metadata
     id="metadata4524"><rdf:RDF><cc:Work
         rdf:about=""><dc:format>image/svg+xml</dc:format><dc:type
           rdf:resource="http://purl.org/dc/dcmitype/StillImage" /><dc:title></dc:title></cc:Work></rdf:RDF></metadata><defs
     id="defs4522" /><sodipodi:namedview
     pagecolor="#ffffff"
     bordercolor="#666666"
     borderopacity="1"
     objecttolerance="10"
     gridtolerance="10"
     guidetolerance="10"
     inkscape:pageopacity="0"
     inkscape:pageshadow="2"
     inkscape:window-width="1920"
     inkscape:window-height="1137"
     id="namedview4520"
     showgrid="false"
     inkscape:zoom="0.44642584"
     inkscape:cx="1332.6134"
     inkscape:cy="1005.3545"
     inkscape:window-x="-8"
     inkscape:window-y="1202"
     inkscape:window-maximized="1"
     inkscape:current-layer="g4526"
     showguides="false" /><g
     id="g4526"
     inkscape:groupmode="layer"
     inkscape:label="ink_ext_XXXXXX"
     transform="matrix(1.3333333,0,0,-1.3333333,0,2168.3333)"><g
       id="g4528"
       transform="scale(0.1)"><g
         id="g5354"><path
           inkscape:connector-curvature="0"
           id="path4976"
           style="fill:#094e8e;fill-opacity:1;fill-rule:nonzero;stroke:none"
           d="m 7360.09,6761.51 c 6.6,-6.13 16.93,-5.75 23.07,0.86 l 9.59,10.33 c 6.14,6.61 5.75,16.94 -0.85,23.07 l -503.68,467.7 c -6.71,6.23 -6.98,16.77 -0.59,23.34 l 505.71,520.15 c 6.28,6.47 6.13,16.8 -0.33,23.09 l -10.11,9.83 c -6.46,6.28 -16.8,6.14 -23.08,-0.33 L 6820.77,7285.1 c -6.39,-6.57 -6.12,-17.11 0.59,-23.34 l 538.73,-500.25" /><path
           inkscape:connector-curvature="0"
           id="path4978"
           style="fill:#094e8e;fill-opacity:1;fill-rule:nonzero;stroke:none"
           d="m 9391.16,7293.79 c 4.9,-5.04 4.7,-13.12 -0.45,-17.9 l -509.32,-472.93 c -5.07,-4.71 -5.36,-12.63 -0.65,-17.7 l 14.77,-15.9 c 4.7,-5.07 12.63,-5.37 17.69,-0.66 l 544.36,505.48 c 5.15,4.78 5.36,12.86 0.46,17.9 l -544.41,559.97 c -4.82,4.96 -12.75,5.07 -17.71,0.25 l -15.56,-15.13 c -4.96,-4.82 -5.07,-12.75 -0.25,-17.71 l 511.07,-525.67" /><path
           inkscape:connector-curvature="0"
           id="path4980"
           style="fill:#094e8e;fill-opacity:1;fill-rule:nonzero;stroke:none"
           d="m 7769.46,7124.2 v -322.59 c 0,-47.13 20.54,-92.3 55.53,-123.85 -0.03,-1.17 -0.1,-2.37 -0.1,-3.53 v -112.45 c 0,-118.04 96.02,-214.07 214.06,-214.07 h 175.69 c 118.04,0 214.06,96.03 214.06,214.07 v 108.08 c 40.93,31.58 64.94,79.63 64.94,131.75 v 331.89 c 135.11,110.79 212.3,273.4 212.3,448.41 0,319.88 -260.25,580.12 -580.13,580.12 -319.87,0 -580.11,-260.24 -580.11,-580.12 0,-178.27 83.37,-348.24 223.76,-457.71 z m 445.18,-717.85 h -175.69 c -75.68,0 -138.81,54.38 -152.57,126.11 h 480.82 c -13.75,-71.73 -76.88,-126.11 -152.56,-126.11 z m 155.43,184.74 h -486.55 v 52.18 c 0.18,-0.06 0.36,-0.1 0.54,-0.16 2.36,-0.79 4.78,-1.42 7.17,-2.1 1.86,-0.53 3.69,-1.14 5.56,-1.6 2.54,-0.63 5.12,-1.08 7.69,-1.59 1.77,-0.35 3.53,-0.78 5.32,-1.07 2.9,-0.48 5.83,-0.76 8.75,-1.08 1.5,-0.16 2.99,-0.42 4.5,-0.54 4.45,-0.36 8.92,-0.54 13.43,-0.54 h 390.16 c 3.77,0 7.54,0.14 11.29,0.4 1.25,0.08 2.5,0.26 3.75,0.37 2.48,0.23 4.97,0.45 7.44,0.79 1.52,0.21 3.02,0.52 4.53,0.77 2.18,0.36 4.36,0.71 6.53,1.15 1.63,0.34 3.24,0.77 4.86,1.16 1.67,0.4 3.36,0.74 5.03,1.2 z M 8125.81,8103.4 c 287.55,0 521.49,-233.94 521.49,-521.49 0,-161.64 -73.26,-311.52 -201,-411.21 l -11.28,-8.81 v -360.28 c 0,-37.57 -19.31,-71.97 -51.71,-92.05 -17.15,-10.69 -36.76,-16.34 -56.67,-16.34 h -390.16 c -5.76,0 -11.46,0.46 -17.06,1.36 -16.81,2.72 -32.78,9.46 -46.9,19.88 -27.82,20.52 -44.43,53.09 -44.43,87.15 v 351.93 l -11.89,8.78 c -132.66,98.02 -211.87,254.87 -211.87,419.59 0,287.55 233.94,521.49 521.48,521.49" /><path
           inkscape:connector-curvature="0"
           id="path4982"
           style="fill:#094e8e;fill-opacity:1;fill-rule:nonzero;stroke:none"
           d="m 8006.11,6777.13 15.69,-5.27 c 11.02,-3.71 22.95,2.22 26.65,13.24 l 367.69,1093.65 c 3.71,11.01 -2.22,22.95 -13.24,26.65 l -15.68,5.27 c -11.02,3.71 -22.95,-2.22 -26.65,-13.24 L 7992.88,6803.78 c -3.71,-11.01 2.22,-22.95 13.23,-26.65" /><path
           inkscape:connector-curvature="0"
           id="path4984"
           style="fill:#094e8e;fill-opacity:1;fill-rule:nonzero;stroke:none"
           d="m 8122.44,7517.86 17.57,-6.26 c 10.4,-3.7 21.83,1.73 25.53,12.13 l 89.21,250.61 c 3.7,10.4 -1.73,21.83 -12.13,25.53 l -17.58,6.26 c -10.4,3.7 -21.83,-1.73 -25.53,-12.13 l -89.2,-250.61 c -3.7,-10.4 1.73,-21.84 12.13,-25.53" /><path
           inkscape:connector-curvature="0"
           id="path4986"
           style="fill:#094e8e;fill-opacity:1;fill-rule:nonzero;stroke:none"
           d="m 7988.05,7516.04 25.75,-9.16 c 8.15,-2.9 17.09,1.35 19.99,9.49 l 92.11,258.79 c 2.9,8.14 -1.35,17.09 -9.49,19.98 l -25.76,9.17 c -8.14,2.9 -17.08,-1.35 -19.98,-9.49 l -92.12,-258.79 c -2.89,-8.14 1.36,-17.09 9.5,-19.99" /><path
           inkscape:connector-curvature="0"
           id="path4988"
           style="fill:#094e8e;fill-opacity:1;fill-rule:nonzero;stroke:none"
           d="m 7864.59,7518.61 21.86,-7.78 c 9.21,-3.28 19.35,1.54 22.63,10.76 l 90.72,254.88 c 3.28,9.22 -1.53,19.35 -10.75,22.64 l -21.85,7.77 c -9.22,3.28 -19.35,-1.53 -22.63,-10.75 l -90.73,-254.89 c -3.28,-9.22 1.54,-19.35 10.75,-22.63" /><g
           transform="scale(1.11403)"
           id="g4990"><path
             inkscape:connector-curvature="0"
             id="path4992"
             style="fill:#094e8e;fill-opacity:1;fill-rule:nonzero;stroke:none"
             d="m 15718.5,4945.98 541.7,-503.05 c 6.7,-6.17 17.1,-5.78 23.2,0.86 l 9.7,10.39 c 6.2,6.64 5.8,17.03 -0.9,23.2 l -506.5,470.32 c -6.7,6.27 -7,16.87 -0.6,23.48 l 508.6,523.07 c 6.3,6.5 6.2,16.89 -0.3,23.21 l -10.2,9.89 c -6.5,6.31 -16.9,6.17 -23.2,-0.33 l -542.1,-557.57 c -6.4,-6.6 -6.2,-17.2 0.6,-23.47" /></g><g
           transform="scale(1.22632)"
           id="g4994"><path
             inkscape:connector-curvature="0"
             id="path4996"
             style="fill:#094e8e;fill-opacity:1;fill-rule:nonzero;stroke:none"
             d="m 16181.6,5032.56 c -4.4,4.28 -11.7,4.38 -16.2,0.21 l -14.2,-13.08 c -4.5,-4.17 -4.6,-11.02 -0.2,-15.31 l 149.2,-145.21 v 57.97 l -118.6,115.42" /></g><g
           transform="scale(1.22632)"
           id="g4998"><path
             inkscape:connector-curvature="0"
             id="path5000"
             style="fill:#094e8e;fill-opacity:1;fill-rule:nonzero;stroke:none"
             d="m 16151.6,4110.4 13.5,-13.74 c 4.3,-4.38 11.5,-4.64 16.1,-0.57 l 119,104.52 v 55.15 l -148,-130.06 c -4.7,-4.07 -4.9,-10.92 -0.6,-15.3" /></g><g
           transform="scale(1.2263)"
           id="g5002"><path
             inkscape:connector-curvature="0"
             id="path5004"
             style="fill:#094e8e;fill-opacity:1;fill-rule:nonzero;stroke:none"
             d="m 15434.6,4066.79 c 86,0 172.6,22.12 250.9,67.64 l 325.3,-576.86 c 15.2,-26.98 41.2,-45.45 73.3,-51.99 8.7,-1.77 17.5,-2.63 26.4,-2.63 32.4,0 65.6,11.62 94.1,33.46 l 30.9,23.79 c 36.9,28.31 59.6,68.49 62.3,110.28 2.2,33.19 -8.8,63.73 -31.1,85.97 l -467.7,467.91 c 68.1,72.1 113.2,162.76 129.5,262.8 21.6,132.12 -9.7,264.72 -87.9,373.36 -78.1,108.64 -194,180.34 -326.1,201.87 -132.2,21.51 -264.7,-9.69 -373.4,-87.89 -224.2,-161.43 -275.4,-475.23 -113.9,-699.5 97.8,-135.89 251.5,-208.21 407.4,-208.21 z m 794.2,-348.2 c 14.4,-14.33 16.4,-32.17 15.6,-44.61 -1.7,-26.01 -17.2,-52.66 -41.5,-71.29 l -31,-23.8 c -23.5,-18.09 -52.4,-25.86 -77.1,-20.83 -11.7,2.4 -27.8,8.83 -37.4,25.82 l -326.6,579.27 30.4,23.32 z m -1056.4,1212.44 c 97.1,69.85 215.5,97.73 333.5,78.48 118,-19.22 221.4,-83.25 291.3,-180.28 69.8,-97.03 97.7,-215.46 78.5,-333.46 -19.3,-117.99 -83.3,-221.45 -180.3,-291.28 -200.3,-144.18 -480.6,-98.51 -624.8,101.8 -144.1,200.3 -98.5,480.56 101.8,624.74" /></g><path
           inkscape:connector-curvature="0"
           id="path5006"
           style="fill:#094e8e;fill-opacity:1;fill-rule:nonzero;stroke:none"
           d="m 10157,1530.98 c 7,7.24 6.9,18.82 -0.4,25.86 l -11.3,11.01 c -7.2,7.04 -18.8,6.88 -25.9,-0.36 L 9515.55,946.344 c -7.16,-7.36 -6.85,-19.164 0.66,-26.149 l 603.49,-560.414 c 7.4,-6.871 19,-6.445 25.9,0.957 l 10.7,11.575 c 6.9,7.402 6.5,18.972 -0.9,25.847 l -564.28,523.953 c -7.53,6.985 -7.83,18.789 -0.67,26.149 L 10157,1530.98" /><path
           inkscape:connector-curvature="0"
           id="path5008"
           style="fill:#094e8e;fill-opacity:1;fill-rule:nonzero;stroke:none"
           d="m 11849.1,1581.75 c -5.4,5.25 -14.2,5.37 -19.8,0.26 l -17.4,-16.04 c -5.6,-5.11 -5.7,-13.51 -0.3,-18.77 l 572.5,-557.235 c 5.5,-5.34 5.3,-13.91 -0.5,-18.981 L 11813,469.652 c -5.6,-4.988 -6,-13.386 -0.7,-18.757 l 16.6,-16.86 c 5.2,-5.371 14.1,-5.683 19.8,-0.695 l 609.8,535.832 c 5.8,5.066 6,13.637 0.5,18.98 l -609.9,593.598" /><path
           inkscape:connector-curvature="0"
           id="path5010"
           style="fill:#094e8e;fill-opacity:1;fill-rule:nonzero;stroke:none"
           d="m 11379.8,590.57 c 83.4,88.414 138.8,199.594 158.7,322.27 26.5,162.02 -11.8,324.62 -107.7,457.86 -95.9,133.23 -237.9,221.14 -400,247.54 -162,26.39 -324.6,-11.87 -457.8,-107.76 -275.1,-197.97 -337.8,-582.785 -139.8,-857.816 119.9,-166.641 308.5,-255.324 499.6,-255.324 105.5,0 211.8,27.125 307.7,82.949 L 11511.4,0 h 75.4 l -290.7,515.504 37.2,28.598 L 11877.2,0 h 89.9 c -4.2,5.89063 -8.6,11.5859 -13.8,16.7695 z m -127.2,-24.371 c -245.6,-176.808 -589.3,-120.801 -766.1,124.836 -176.8,245.637 -120.8,589.325 124.8,766.125 119,85.65 264.2,119.84 409,96.25 144.7,-23.58 271.5,-102.09 357.2,-221.09 85.6,-118.99 119.8,-264.21 96.2,-408.918 -23.6,-144.695 -102.1,-271.558 -221.1,-357.203" /><path
           inkscape:connector-curvature="0"
           id="path5012"
           style="fill:#094e8e;fill-opacity:1;fill-rule:nonzero;stroke:none"
           d="m 2645.74,3598.76 c 0,154.62 -125.79,280.41 -280.4,280.41 -153.18,0 -277.98,-123.48 -280.3,-276.11 -342.36,-67.29 -535.23,-281.6 -622.56,-409.59 l 1.86,809.63 c 205.16,19.64 366.15,192.9 366.15,403.12 0,223.34 -181.69,405.03 -405.03,405.03 -223.33,0 -405.03,-181.69 -405.03,-405.03 0,-215.46 169.13,-392.11 381.59,-404.3 l -2.41,-1051.32 c -145.8,-15.55 -259.74,-139.26 -259.74,-289.11 0,-160.35 130.45,-290.79 290.79,-290.79 160.34,0 290.79,130.44 290.79,290.79 0,149.58 -113.55,273.11 -258.97,289.01 l 1.82,124.23 c 23.53,46.98 204.02,379.62 626.74,465.88 26.85,-126.8 139.62,-222.25 274.3,-222.25 154.61,0 280.4,125.79 280.4,280.4 z m -986.61,-937.27 c 0,-125.99 -102.49,-228.48 -228.47,-228.48 -125.98,0 -228.48,102.49 -228.48,228.48 0,125.98 102.5,228.47 228.48,228.47 125.98,0 228.47,-102.49 228.47,-228.47 z m -233.67,1402.02 c -188.97,0 -342.71,153.74 -342.71,342.71 0,188.98 153.74,342.72 342.71,342.72 188.98,0 342.72,-153.74 342.72,-342.72 0,-188.97 -153.74,-342.71 -342.72,-342.71 z m 939.88,-682.84 c -120.25,0 -218.09,97.84 -218.09,218.09 0,120.26 97.84,218.1 218.09,218.1 120.25,0 218.09,-97.84 218.09,-218.1 0,-120.25 -97.84,-218.09 -218.09,-218.09" /><path
           inkscape:connector-curvature="0"
           id="path5014"
           style="fill:#094e8e;fill-opacity:1;fill-rule:nonzero;stroke:none"
           d="m 14896.6,1174.14 c -153.1,0 -277.9,-123.48 -280.2,-276.113 -342.4,-67.285 -535.3,-281.597 -622.6,-409.586 l 1.9,809.629 c 205.1,19.64 366.1,192.91 366.1,403.12 0,223.34 -181.7,405.03 -405,405.03 -223.4,0 -405.1,-181.69 -405.1,-405.03 0,-215.46 169.2,-392.11 381.6,-404.3 l -2.4,-1051.324 C 13799.7,231.57 13694.3,129.945 13674.6,0.519531 h 63.2 C 13758.4,105.484 13851.1,184.934 13962,184.934 c 110.9,0 203.5,-79.45 224.1,-184.414469 h 63.3 C 14229.6,129.691 14124.6,231.16 13993.8,245.469 l 1.8,124.23 c 23.5,46.981 204,379.621 626.7,465.879 26.9,-126.797 139.7,-222.25 274.3,-222.25 154.7,0 280.5,125.789 280.5,280.406 0,154.616 -125.8,280.406 -280.5,280.406 z m -939.8,184.34 c -189,0 -342.7,153.74 -342.7,342.71 0,188.98 153.7,342.72 342.7,342.72 189,0 342.7,-153.74 342.7,-342.72 0,-188.97 -153.7,-342.71 -342.7,-342.71 z m 939.8,-682.839 c -120.2,0 -218,97.839 -218,218.093 0,120.246 97.8,218.086 218,218.086 120.3,0 218.1,-97.84 218.1,-218.086 0,-120.254 -97.8,-218.093 -218.1,-218.093" /><path
           inkscape:connector-curvature="0"
           id="path5016"
           style="fill:#094e8e;fill-opacity:1;fill-rule:nonzero;stroke:none"
           d="m 3589.43,6328.11 301.36,-366.05 177.91,93.57 36.43,-402.19 371.75,226.61 10.22,421.33 c 106.03,66.17 692.98,433.33 877.51,569.48 160.07,118.09 270.12,305.89 318.25,543.07 36.03,177.54 25.18,318.75 24.7,324.69 l -2.04,25.29 -24.84,5.23 c -24.38,5.13 -600.62,122.29 -907.1,-179.22 -186.63,-183.64 -655.27,-654.54 -738.49,-738.2 l -424.61,79.82 -274.06,-332.14 379.79,-112.75 z m -135.18,307.24 183.12,221.94 420.55,-79.06 12.7,12.77 c 5.43,5.48 546.77,549.83 750.67,750.44 245.82,241.88 706.3,184.36 819.69,165.77 1.35,-47.4 0.62,-154.7 -24.77,-279.75 -31.18,-153.69 -107.16,-365.52 -291.98,-501.88 -196.67,-145.1 -881.75,-571.88 -888.66,-576.17 l -15.57,-9.7 -10.19,-420.93 -246.8,-150.43 -35.78,394.9 -219.12,-115.23 -231.11,280.71 155.41,194.36 -378.16,112.26" /><path
           inkscape:connector-curvature="0"
           id="path5018"
           style="fill:#094e8e;fill-opacity:1;fill-rule:nonzero;stroke:none"
           d="m 5041.66,6986.95 c 8.3,-0.81 16.57,-1.2 24.8,-1.2 58.26,0 114.24,20 159.81,57.5 h -0.02 c 52.02,42.82 84.23,103.31 90.73,170.36 6.5,67.03 -13.49,132.59 -56.3,184.59 -42.81,52.01 -103.31,84.23 -170.35,90.72 -67.08,6.53 -132.61,-13.5 -184.6,-56.3 -52,-42.81 -84.22,-103.31 -90.72,-170.35 -6.5,-67.04 13.49,-132.59 56.3,-184.59 42.82,-52.01 103.31,-84.23 170.35,-90.73 z m -158.97,268.76 c 4.75,48.96 28.28,93.13 66.27,124.4 33.27,27.41 74.15,42.01 116.7,42.01 6.01,0 12.05,-0.29 18.11,-0.88 48.96,-4.75 93.13,-28.28 124.4,-66.26 31.27,-37.98 45.88,-85.85 41.13,-134.81 -4.75,-48.97 -28.28,-93.14 -66.25,-124.41 h -0.01 c -37.98,-31.27 -85.91,-45.84 -134.81,-41.13 -48.97,4.75 -93.14,28.28 -124.41,66.27 -31.27,37.97 -45.87,85.84 -41.13,134.81" /><path
           inkscape:connector-curvature="0"
           id="path5020"
           style="fill:#094e8e;fill-opacity:1;fill-rule:nonzero;stroke:none"
           d="m 3649.82,5837.1 c 82.15,72.56 96.56,164.02 68.32,216.9 -10.26,19.21 -29.37,54.96 -64.34,78.95 -38.96,26.73 -120.23,58.85 -226.76,-26.32 -63.66,-50.89 -129.95,-263.53 -142.59,-305.65 l -14.4,-47.96 49.9,4.31 c 44.35,3.85 268.71,25.76 329.87,79.77 z m -180.32,216.42 c 33.84,27.05 64.67,40.52 93.1,40.52 18.54,0 36.07,-5.74 52.74,-17.16 21.27,-14.6 34.24,-38.86 42.84,-54.95 13.06,-24.48 5.14,-82.17 -53.38,-133.85 -27.55,-24.34 -143.39,-46.17 -239.62,-57.68 30.6,91.19 75.11,199.76 104.32,223.12" /><g
           transform="scale(1.01032)"
           id="g5022"><path
             inkscape:connector-curvature="0"
             id="path5024"
             style="fill:#094e8e;fill-opacity:1;fill-rule:nonzero;stroke:none"
             d="m 15793.9,1582.6 136.6,-58.12 199.7,287.64 -102.9,109.03 272.7,105.93 -221.8,227.9 -307.7,-84.4 c -66.3,56.54 -439.7,374.82 -588.2,498.71 -243.7,203.41 -660.8,82.35 -678.4,77.11 l -18,-5.36 v -18.73 c 0,-4.4 0.6,-109 37.8,-237.49 49.8,-171.67 142.1,-303.24 267.1,-380.49 144,-89.06 598.2,-323.84 680.3,-366.13 l 33,-309.5 287.3,-144.33 z m -52.1,-217.15 -190.7,95.81 -33,309.21 -12,6.19 c -5.3,2.75 -535.4,275.47 -688.9,370.38 -144.3,89.2 -213,240.52 -245.2,351.76 -26.3,90.51 -33.3,169.44 -35.2,204.41 82.4,20.53 417.8,90.7 613.4,-72.48 162.2,-135.34 593.5,-503.29 597.8,-506.99 l 10.1,-8.63 304.8,83.6 148.2,-152.29 -271.6,-105.48 126.2,-133.66 -153.2,-220.58 -168.2,71.58 -2.5,-292.83" /></g><path
           inkscape:connector-curvature="0"
           id="path5026"
           style="fill:#094e8e;fill-opacity:1;fill-rule:nonzero;stroke:none"
           d="m 15250.4,2571.8 c -41.3,28.65 -91.3,39.55 -140.8,30.6 -49.4,-8.93 -92.4,-36.58 -121.1,-77.87 -28.6,-41.28 -39.5,-91.25 -30.6,-140.71 8.9,-49.45 36.6,-92.47 77.9,-121.13 v 0 c 36.1,-25.11 79,-36.57 122.3,-33.01 6.1,0.5 12.3,1.3 18.4,2.41 49.4,8.92 92.5,36.58 121.1,77.86 28.7,41.28 39.5,91.26 30.6,140.71 -8.9,49.46 -36.6,92.48 -77.8,121.14 z m 5.5,-232.91 c -20.9,-30.16 -52.3,-50.35 -88.4,-56.87 -36.1,-6.49 -72.6,1.42 -102.8,22.35 v 0 c -30.1,20.93 -50.3,52.34 -56.9,88.47 -6.5,36.12 1.5,72.61 22.4,102.76 20.9,30.15 52.3,50.35 88.5,56.87 4.4,0.8 8.9,1.39 13.4,1.75 31.6,2.6 62.9,-5.76 89.3,-24.11 30.2,-20.93 50.4,-52.34 56.9,-88.46 6.5,-36.12 -1.4,-72.61 -22.4,-102.76" /><g
           transform="scale(1.01652)"
           id="g5028"><path
             inkscape:connector-curvature="0"
             id="path5030"
             style="fill:#094e8e;fill-opacity:1;fill-rule:nonzero;stroke:none"
             d="m 16163.9,1648.79 c -83,55.91 -140.6,27.53 -167.4,5.64 -24.2,-19.65 -36,-46.95 -42.4,-61.62 -17.5,-40.38 -1.4,-106.42 63,-154.57 48,-35.84 213.5,-38.39 246.1,-38.54 l 36.8,-0.16 -13.4,34.23 c -11.8,30.04 -73.1,181.62 -122.7,215.02 z M 16047,1478.24 c -45.9,34.29 -55.2,76.02 -47.1,94.71 5.3,12.29 13.4,30.81 28.1,42.77 11.5,9.36 23.9,14.6 37.5,15.72 20.8,1.71 44.2,-6.3 70.5,-24.05 22.8,-15.33 61.9,-92.08 89.8,-156.95 -71.1,2.64 -157.2,11.65 -178.8,27.8" /></g><path
           inkscape:connector-curvature="0"
           id="path5032"
           style="fill:#094e8e;fill-opacity:1;fill-rule:nonzero;stroke:none"
           d="m 10485.5,6287.87 h 2037.2 c 45.6,0 82.7,37.11 82.7,82.72 v 291.03 c 0,45.61 -37.1,82.73 -82.7,82.73 h -2037.2 c -45.6,0 -82.7,-37.12 -82.7,-82.73 v -291.03 c 0,-45.61 37.1,-82.72 82.7,-82.72 z m -24.9,373.75 c 0,13.74 11.1,24.92 24.9,24.92 h 2037.2 c 13.8,0 24.9,-11.18 24.9,-24.92 v -291.03 c 0,-13.73 -11.1,-24.91 -24.9,-24.91 h -2037.2 c -13.8,0 -24.9,11.18 -24.9,24.91 v 291.03" /><path
           inkscape:connector-curvature="0"
           id="path5034"
           style="fill:#094e8e;fill-opacity:1;fill-rule:nonzero;stroke:none"
           d="m 12836.8,5737.94 v 291.02 c 0,45.62 -37.1,82.73 -82.7,82.73 h -2037.2 c -45.6,0 -82.8,-37.11 -82.8,-82.73 v -291.02 c 0,-45.61 37.2,-82.73 82.8,-82.73 h 2037.2 c 45.6,0 82.7,37.12 82.7,82.73 z m -2144.9,0 v 291.02 c 0,13.75 11.2,24.92 25,24.92 h 2037.2 c 13.7,0 24.9,-11.17 24.9,-24.92 v -291.02 c 0,-13.74 -11.2,-24.92 -24.9,-24.92 h -2037.2 c -13.8,0 -25,11.18 -25,24.92" /><path
           inkscape:connector-curvature="0"
           id="path5036"
           style="fill:#094e8e;fill-opacity:1;fill-rule:nonzero;stroke:none"
           d="m 10473.9,5007.13 h 2037.2 c 45.7,0 82.8,37.11 82.8,82.72 v 291.02 c 0,45.61 -37.1,82.72 -82.8,82.72 h -2037.2 c -45.6,0 -82.7,-37.11 -82.7,-82.72 v -291.02 c 0,-45.61 37.1,-82.72 82.7,-82.72 z m -24.9,373.74 c 0,13.74 11.2,24.92 24.9,24.92 h 2037.2 c 13.8,0 25,-11.18 25,-24.92 v -291.02 c 0,-13.74 -11.2,-24.92 -25,-24.92 h -2037.2 c -13.7,0 -24.9,11.18 -24.9,24.92 v 291.02" /><path
           inkscape:connector-curvature="0"
           id="path5038"
           style="fill:#094e8e;fill-opacity:1;fill-rule:nonzero;stroke:none"
           d="m 12127.8,7059.46 c 0.1,-1.25 0.2,-2.49 0.4,-3.72 0.1,-0.5 0.1,-0.99 0.2,-1.48 0.4,-1.54 0.8,-3.05 1.4,-4.51 0,-0.11 0,-0.22 0.1,-0.33 0.6,-1.54 1.4,-3.01 2.3,-4.43 0.3,-0.41 0.6,-0.8 0.8,-1.2 0.8,-1.13 1.7,-2.19 2.7,-3.2 0.2,-0.21 0.3,-0.46 0.5,-0.67 0.1,-0.1 0.2,-0.16 0.3,-0.25 0.2,-0.16 0.3,-0.34 0.5,-0.49 l 215.8,-200.4 c 11.7,-10.87 30,-10.18 40.8,1.51 10.9,11.7 10.2,29.99 -1.5,40.85 l -166.5,154.61 c 394.9,17.69 681,-98.55 809.4,-330.68 122.4,-221.34 87.6,-537.23 -84.5,-768.17 -9.6,-12.8 -6.9,-30.9 5.9,-40.44 5.2,-3.87 11.2,-5.74 17.2,-5.74 8.9,0 17.6,4.03 23.2,11.64 185.3,248.53 221.8,590.13 88.8,830.69 -138.8,250.82 -440.7,377.52 -854.7,360.71 l 146.6,146.57 c 11.3,11.29 11.3,29.58 0,40.87 -11.3,11.29 -29.6,11.29 -40.9,0 l -200.4,-200.41 c 0,-0.03 -0.1,-0.08 -0.1,-0.11 -1.2,-1.23 -2.3,-2.59 -3.3,-4.05 -0.3,-0.38 -0.5,-0.78 -0.7,-1.18 -0.7,-1.07 -1.3,-2.2 -1.8,-3.36 -0.2,-0.49 -0.4,-0.96 -0.6,-1.45 -0.1,-0.28 -0.3,-0.52 -0.4,-0.8 -0.4,-1.18 -0.7,-2.39 -0.9,-3.59 -0.1,-0.15 -0.1,-0.29 -0.1,-0.44 -0.4,-1.65 -0.5,-3.32 -0.5,-4.98 0,-0.46 0,-0.92 0,-1.37" /><g
           transform="scale(1.16467)"
           id="g5040"><path
             inkscape:connector-curvature="0"
             id="path5042"
             style="fill:#094e8e;fill-opacity:1;fill-rule:nonzero;stroke:none"
             d="m 16300,657.957 v 249.877 c 0,39.164 -31.9,71.03 -71,71.03 h -1749.2 c -39.2,0 -71.1,-31.866 -71.1,-71.03 V 657.957 c 0,-39.168 31.9,-71.03 71.1,-71.03 H 16229 c 39.1,0 71,31.862 71,71.03 z m -1841.6,0 v 249.877 c 0,11.799 9.6,21.395 21.4,21.395 H 16229 c 11.8,0 21.4,-9.596 21.4,-21.395 V 657.957 c 0,-11.799 -9.6,-21.395 -21.4,-21.395 h -1749.2 c -11.8,0 -21.4,9.596 -21.4,21.395" /></g><g
           transform="scale(1.17886)"
           id="g5044"><path
             inkscape:connector-curvature="0"
             id="path5046"
             style="fill:#094e8e;fill-opacity:1;fill-rule:nonzero;stroke:none"
             d="m 16229.8,430.414 h -1728.1 c -38.7,0 -70.2,-31.483 -70.2,-70.179 V 113.367 c 0,-38.6922 31.5,-70.1745 70.2,-70.1745 h 1728.1 c 38.7,0 70.2,31.4823 70.2,70.1745 v 246.868 c 0,38.696 -31.5,70.179 -70.2,70.179 z m 21.2,-317.047 c 0,-11.657 -9.5,-21.1369 -21.2,-21.1369 h -1728.1 c -11.7,0 -21.1,9.4799 -21.1,21.1369 v 246.868 c 0,11.658 9.4,21.138 21.1,21.138 h 1728.1 c 11.7,0 21.2,-9.48 21.2,-21.138 V 113.367" /></g><g
           transform="scale(1.20228)"
           id="g5048"><path
             inkscape:connector-curvature="0"
             id="path5050"
             style="fill:#094e8e;fill-opacity:1;fill-rule:nonzero;stroke:none"
             d="m 15478.5,1238.86 121.9,121.91 c 9.4,9.39 9.4,24.6 0,34 -9.4,9.39 -24.6,9.39 -34,0 l -166.7,-166.69 c 0,-0.03 0,-0.07 -0.1,-0.1 -1,-1.03 -1.9,-2.16 -2.7,-3.36 -0.2,-0.33 -0.4,-0.66 -0.6,-0.99 -0.6,-0.89 -1.1,-1.82 -1.5,-2.8 -0.2,-0.4 -0.4,-0.79 -0.5,-1.2 -0.1,-0.23 -0.2,-0.43 -0.3,-0.66 -0.3,-0.99 -0.6,-1.99 -0.8,-2.99 0,-0.12 -0.1,-0.24 -0.1,-0.36 -0.3,-1.38 -0.4,-2.76 -0.4,-4.15 0,-0.38 0,-0.76 0,-1.14 0.1,-1.04 0.2,-2.07 0.3,-3.09 0.1,-0.42 0.2,-0.83 0.3,-1.23 0.2,-1.28 0.6,-2.54 1.1,-3.76 0,-0.09 0,-0.18 0.1,-0.27 0.5,-1.28 1.2,-2.5 1.9,-3.68 0.2,-0.35 0.5,-0.67 0.7,-1.01 0.6,-0.93 1.4,-1.81 2.2,-2.66 0.1,-0.17 0.2,-0.38 0.4,-0.55 0.1,-0.08 0.2,-0.13 0.3,-0.21 0.1,-0.13 0.2,-0.28 0.4,-0.41 l 179.5,-166.68 c 9.7,-9.04 24.9,-8.47 33.9,1.26 9.1,9.73 8.5,24.94 -1.2,33.98 l -138.5,128.59 c 328.4,14.71 566.4,-81.97 673.2,-275.045 101.8,-184.099 72.9,-446.838 -70.3,-638.92 -7.9,-10.647 -5.7,-25.703 4.9,-33.637 4.3,-3.22 9.4,-4.773 14.4,-4.773 7.3,0 14.5,3.346 19.2,9.675 154.2,206.723 184.5,490.843 73.8,690.928 -115.3,208.622 -366.4,314.012 -710.8,300.022" /></g><path
           inkscape:connector-curvature="0"
           id="path5052"
           style="fill:#094e8e;fill-opacity:1;fill-rule:nonzero;stroke:none"
           d="m 14330.1,6317.57 c 575,0 1042.9,458.61 1042.9,1022.32 0,3.15 -0.1,6.29 -0.2,9.41 l -0.2,5.73 c -0.2,16.73 -14.1,30.17 -31.2,30.17 H 14352 v 946.16 c 0,8.17 -3.3,16 -9.3,21.74 -5.8,5.69 -13.7,8.87 -21.9,8.87 -0.1,0 -0.2,0 -0.3,0 -276.6,-2.47 -536.2,-109.86 -731,-302.41 -194.9,-192.68 -302.3,-448.27 -302.3,-719.67 0,-563.71 467.8,-1022.32 1042.9,-1022.32 z m -40.6,1982.41 v -945.39 c 0,-16.9 14,-30.61 31.3,-30.61 h 989.6 c -8.7,-522.66 -445.1,-945.2 -980.3,-945.2 -540.6,0 -980.5,431.15 -980.5,961.11 0,514.74 418.8,939.12 939.9,960.09" /><path
           inkscape:connector-curvature="0"
           id="path5054"
           style="fill:#094e8e;fill-opacity:1;fill-rule:nonzero;stroke:none"
           d="m 14473.2,7492.8 h 1018.1 c 17,0 30.9,13.44 31.2,30.17 l 0.1,5.73 c 0.1,3.14 0.3,6.27 0.3,9.43 0,563.71 -467.9,1022.32 -1042.9,1022.32 -1.7,0 -3.3,-0.05 -4.9,-0.11 l -2.3,-0.07 c -17.1,-0.18 -30.8,-13.84 -30.8,-30.61 V 7523.41 c 0,-16.91 13.9,-30.61 31.2,-30.61 z m 31.2,1006.14 c 524,-12.65 947.3,-430.26 955.9,-944.92 h -955.9 v 944.92" /><g
           transform="scale(1.22632)"
           id="g5056"><path
             inkscape:connector-curvature="0"
             id="path5058"
             style="fill:#094e8e;fill-opacity:1;fill-rule:nonzero;stroke:none"
             d="m 14358.4,1687.3 0.1,2033.79 c 0,13.84 -11.1,24.88 -24.9,24.88 -13.7,0 -24.8,-11.04 -24.8,-24.88 l -0.1,-2033.79 c 0,-54.04 43.9,-98.03 97.9,-98.03 h 1893.6 v 49.76 h -1893.6 c -26.6,0 -48.2,21.69 -48.2,48.27" /></g><g
           transform="scale(1.22632)"
           id="g5060"><path
             inkscape:connector-curvature="0"
             id="path5062"
             style="fill:#094e8e;fill-opacity:1;fill-rule:nonzero;stroke:none"
             d="m 15954.7,2191.77 0.1,296.47 c 0,13.73 -11.1,24.88 -24.9,24.88 h -395.3 l -193.3,148.08 v 386.34 c 0,13.73 -11.2,24.88 -24.9,24.88 h -311.8 v 262.93 c 0,13.74 -11.1,24.88 -24.9,24.88 h -282.3 c -13.7,0 -24.9,-11.14 -24.9,-24.88 0,-13.73 11.2,-24.88 24.9,-24.88 h 257.4 v -262.93 c 0,-13.73 11.2,-24.88 24.9,-24.88 h 311.8 v -323.34 l -753.3,577.31 c -6.6,5.08 -16,3.79 -20.9,-2.78 -5.1,-6.47 -3.8,-15.83 2.7,-20.9 l 771.5,-591.25 v -173.46 c 0,-13.74 11.1,-24.88 24.9,-24.88 h 234 l 354.6,-271.1 V 1978 c 0,-13.84 11.1,-24.88 24.8,-24.88 h 287.4 l 83,-63.58 v 37.65 l -33.9,25.93 h 33.9 v 49.76 h -98.9 z m -613.4,321.35 v 110.46 l 144.2,-110.46 z m 563.7,-283.24 -305.6,233.48 h 305.7 z m 49.7,-227 v 151.27 l 197.6,-151.27 h -197.6" /></g><path
           inkscape:connector-curvature="0"
           id="path5064"
           style="fill:#094e8e;fill-opacity:1;fill-rule:nonzero;stroke:none"
           d="M 453.688,5577.92 0,6019.48 v -71.09 l 378.785,-368.65 c 5.488,-5.35 5.258,-13.91 -0.512,-18.98 L 0,5228.39 v -67.62 l 453.172,398.18 c 5.773,5.06 6.004,13.63 0.516,18.97" /><path
           inkscape:connector-curvature="0"
           id="path5066"
           style="fill:#094e8e;fill-opacity:1;fill-rule:nonzero;stroke:none"
           d="m 804.328,1979.46 c 0,16.84 -13.668,30.51 -30.512,30.51 H 0 v -61.02 h 773.816 c 16.844,0 30.512,13.67 30.512,30.51" /><path
           inkscape:connector-curvature="0"
           id="path5068"
           style="fill:#094e8e;fill-opacity:1;fill-rule:nonzero;stroke:none"
           d="m 171.656,2425.66 c 0,16.84 -13.672,30.51 -30.511,30.51 H 0 v -61.03 h 141.145 c 16.839,0 30.511,13.55 30.511,30.52" /><path
           inkscape:connector-curvature="0"
           id="path5070"
           style="fill:#094e8e;fill-opacity:1;fill-rule:nonzero;stroke:none"
           d="m 208.145,2154.23 c 5.492,0 10.984,2.56 14.523,7.2 6.223,8.05 4.637,19.53 -3.418,25.75 L 0,2355.09 v -46.17 l 197.039,-150.91 c 3.297,-2.44 7.203,-3.78 11.106,-3.78" /><path
           inkscape:connector-curvature="0"
           id="path5072"
           style="fill:#094e8e;fill-opacity:1;fill-rule:nonzero;stroke:none"
           d="M 825.273,5314.87 H 2204.69 c 40.33,0 73.15,31.48 73.15,70.17 v 1377.98 c 0,18.82 -8.05,37.14 -22.09,50.25 L 1925.3,7122.2 c -13.74,12.85 -31.88,19.92 -51.07,19.92 H 825.273 c -40.332,0 -73.148,-31.48 -73.148,-70.17 V 5385.04 c 0,-38.69 32.816,-70.17 73.148,-70.17 z m -18.664,1757.08 c 0,8.66 8.375,15.69 18.664,15.69 H 1874.23 c 5.25,0 10.31,-1.91 13.87,-5.24 l 330.45,-308.93 c 3.1,-2.9 4.8,-6.61 4.8,-10.45 V 5385.04 c 0,-8.65 -8.37,-15.68 -18.66,-15.68 H 825.273 c -10.289,0 -18.664,7.03 -18.664,15.68 v 1686.91" /><path
           inkscape:connector-curvature="0"
           id="path5074"
           style="fill:#094e8e;fill-opacity:1;fill-rule:nonzero;stroke:none"
           d="m 1270.09,5931.35 c 5.32,-5.32 12.29,-7.98 19.26,-7.98 6.97,0 13.94,2.66 19.26,7.98 10.64,10.64 10.64,27.89 0,38.52 l -235,235 242.26,242.26 c 10.64,10.64 10.64,27.89 0,38.53 -10.64,10.64 -27.88,10.64 -38.52,0 l -261.53,-261.53 c -5.11,-5.11 -7.98,-12.04 -7.98,-19.26 0,-7.23 2.87,-14.16 7.98,-19.26 l 254.27,-254.26" /><path
           inkscape:connector-curvature="0"
           id="path5076"
           style="fill:#094e8e;fill-opacity:1;fill-rule:nonzero;stroke:none"
           d="m 1897.35,6204.87 -235,-235 c -10.64,-10.64 -10.64,-27.88 0,-38.52 5.32,-5.32 12.29,-7.98 19.26,-7.98 6.97,0 13.94,2.66 19.26,7.98 l 254.26,254.26 c 10.64,10.64 10.64,27.88 0,38.52 l -261.53,261.53 c -10.64,10.64 -27.88,10.64 -38.52,0 -10.64,-10.64 -10.64,-27.89 0,-38.53 l 242.27,-242.26" /><path
           inkscape:connector-curvature="0"
           id="path5078"
           style="fill:#094e8e;fill-opacity:1;fill-rule:nonzero;stroke:none"
           d="m 8266.24,1871.3 c -12.18,11.39 -28.24,17.66 -45.23,17.66 h -858.97 c -35.79,0 -64.91,-28.01 -64.91,-62.46 V 445.117 c 0,-34.441 29.12,-62.461 64.91,-62.461 h 1129.57 c 35.78,0 64.9,28.02 64.9,62.461 V 1573.52 c 0,16.8 -7.17,33.13 -19.67,44.8 z M 8501.89,445.117 c 0,-4.25 -4.7,-7.84 -10.28,-7.84 H 7362.04 c -5.58,0 -10.29,3.59 -10.29,7.84 V 1826.5 c 0,4.25 4.71,7.84 10.29,7.84 h 858.97 c 3.05,0 5.94,-1.07 7.94,-2.94 l 270.6,-252.97 c 1.51,-1.42 2.34,-3.16 2.34,-4.91 V 445.117" /><path
           inkscape:connector-curvature="0"
           id="path5080"
           style="fill:#094e8e;fill-opacity:1;fill-rule:nonzero;stroke:none"
           d="m 7767.31,1349.93 c -10.65,10.65 -27.97,10.64 -38.61,0 l -214.16,-214.16 c -5.16,-5.17 -8,-12.02 -8,-19.31 0,-7.29 2.84,-14.14 8,-19.31 l 208.21,-208.209 c 5.16,-5.156 12.01,-7.996 19.31,-7.996 7.29,0 14.15,2.84 19.31,7.996 5.16,5.161 8,12.016 8,19.313 0,7.293 -2.84,14.156 -8,19.305 l -188.91,188.901 194.85,194.85 c 10.65,10.65 10.65,27.97 0,38.62" /><path
           inkscape:connector-curvature="0"
           id="path5082"
           style="fill:#094e8e;fill-opacity:1;fill-rule:nonzero;stroke:none"
           d="m 8076.63,1349.93 c -10.66,10.64 -27.97,10.64 -38.61,0 -10.65,-10.64 -10.65,-27.98 0,-38.62 l 194.84,-194.85 -188.89,-188.901 c -10.65,-10.645 -10.65,-27.973 0,-38.618 5.16,-5.156 12.01,-7.996 19.3,-7.996 7.3,0 14.16,2.84 19.31,7.996 l 208.21,208.209 c 10.65,10.64 10.65,27.98 0,38.62 l -214.16,214.16" /><path
           inkscape:connector-curvature="0"
           id="path5084"
           style="fill:#094e8e;fill-opacity:1;fill-rule:nonzero;stroke:none"
           d="m 7656.58,4021.59 c 34.7,0 63,30.1 63,67.1 v 1894.2 c 0,37 -28.3,67.1 -63,67.1 h -2617.5 c -34.8,0 -63.1,-30.1 -63.1,-67.1 v -1894.2 c 0,-37 28.3,-67.1 63.1,-67.1 z m 0,1980.4 c 8.3,0 15.1,-8.6 15.1,-19.1 v -1894.2 c 0,-10.6 -6.8,-19.1 -15.1,-19.1 H 5631.8 v 1925 c 0,2.6 -0.52,5.05 -1.29,7.4 z m -2632.6,-1913.3 v 1894.2 c 0,10.5 6.8,19.1 15.1,19.1 h 546.04 c -0.77,-2.35 -1.29,-4.8 -1.29,-7.4 v -1925 h -544.75 c -8.3,0 -15.1,8.5 -15.1,19.1" /><path
           inkscape:connector-curvature="0"
           id="path5086"
           style="fill:#094e8e;fill-opacity:1;fill-rule:nonzero;stroke:none"
           d="m 7656.58,3911.59 c 89.7,0 162.8,79.5 162.8,177.1 v 1894.2 c 0,97.6 -73.1,177 -162.8,177 h -2617.5 c -89.8,0 -162.8,-79.4 -162.8,-177 v -1894.2 c 0,-97.6 73,-177.1 162.8,-177.1 z m -2732.4,177.1 v 1894.2 c 0,71.2 51.6,129 114.9,129 h 2617.5 c 63.3,0 114.8,-57.8 114.8,-129 v -1894.2 c 0,-71.2 -51.5,-129.1 -114.8,-129.1 h -2617.5 c -63.3,0 -114.9,57.9 -114.9,129.1" /><path
           inkscape:connector-curvature="0"
           id="path5088"
           style="fill:#094e8e;fill-opacity:1;fill-rule:nonzero;stroke:none"
           d="m 8062,3795.23 v 62.95 c 0,13.23 -10.76,23.99 -23.98,23.99 H 6764.11 c -10.09,0 -19.16,-6.39 -22.57,-15.9 l -13.15,-36.7 c -4.14,-11.55 -13.55,-19.01 -23.97,-19.01 h -695.7 c -12.97,0 -24.63,9.15 -29.7,23.3 l -11.61,32.41 c -3.41,9.51 -12.48,15.9 -22.58,15.9 H 4657.59 c -13.23,0 -23.99,-10.76 -23.99,-23.99 v -65.9 c 0,-68.62 51.65,-124.44 115.12,-124.44 h 3195.49 c 64.95,0 117.79,57.14 117.79,127.39 z m -3380.43,-2.95 v 41.92 h 1246.37 l 5.92,-16.51 c 11.99,-33.47 41.38,-55.1 74.86,-55.1 h 695.7 c 30.45,0 58.23,20.41 69.12,50.8 l 7.46,20.81 h 1233.04 v -38.97 c 0,-43.79 -31.33,-79.42 -69.83,-79.42 H 4748.72 c -37.02,0 -67.15,34.3 -67.15,76.47" /><path
           inkscape:connector-curvature="0"
           id="path5090"
           style="fill:#094e8e;fill-opacity:1;fill-rule:nonzero;stroke:none"
           d="m 5123.25,5537.59 h 340.22 c 13.23,0 23.99,10.77 23.99,23.99 0,13.22 -10.76,23.98 -23.99,23.98 h -340.22 c -13.22,0 -23.98,-10.76 -23.98,-23.98 0,-13.22 10.76,-23.99 23.98,-23.99" /><path
           inkscape:connector-curvature="0"
           id="path5092"
           style="fill:#094e8e;fill-opacity:1;fill-rule:nonzero;stroke:none"
           d="m 5119.11,5388.43 h 340.23 c 13.21,0 23.98,10.76 23.98,23.98 0,13.22 -10.77,23.98 -23.98,23.98 h -340.23 c -13.22,0 -23.98,-10.76 -23.98,-23.98 0,-13.22 10.76,-23.98 23.98,-23.98" /><path
           inkscape:connector-curvature="0"
           id="path5094"
           style="fill:#094e8e;fill-opacity:1;fill-rule:nonzero;stroke:none"
           d="m 5119.11,5243.41 h 340.23 c 13.21,0 23.98,10.76 23.98,23.98 0,13.22 -10.77,23.99 -23.98,23.99 h -340.23 c -13.22,0 -23.98,-10.77 -23.98,-23.99 0,-13.22 10.76,-23.98 23.98,-23.98" /><path
           inkscape:connector-curvature="0"
           id="path5096"
           style="fill:#094e8e;fill-opacity:1;fill-rule:nonzero;stroke:none"
           d="m 5928.04,4522.52 h 1473.5 c 23.69,0 42.97,19.28 42.97,42.97 v 984.92 c 0,23.69 -19.28,42.97 -42.97,42.97 h -1473.5 c -23.69,0 -42.97,-19.28 -42.97,-42.97 v -984.92 c 0,-23.69 19.28,-42.97 42.97,-42.97 z m 5,1022.89 h 1463.5 v -116.06 h -1463.5 z m 0,-164.03 h 1463.5 v -810.89 h -1463.5 v 810.89" /><path
           inkscape:connector-curvature="0"
           id="path5098"
           style="fill:#094e8e;fill-opacity:1;fill-rule:nonzero;stroke:none"
           d="m 6183.36,5107.94 h 994.44 c 13.23,0 23.99,10.76 23.99,23.98 0,13.22 -10.76,23.99 -23.99,23.99 h -994.44 c -13.22,0 -23.98,-10.77 -23.98,-23.99 0,-13.22 10.76,-23.98 23.98,-23.98" /><path
           inkscape:connector-curvature="0"
           id="path5100"
           style="fill:#094e8e;fill-opacity:1;fill-rule:nonzero;stroke:none"
           d="m 7181.95,4994.31 h -998.59 c -13.22,0 -23.98,-10.76 -23.98,-23.99 0,-13.22 10.76,-23.98 23.98,-23.98 h 998.59 c 13.23,0 23.98,10.76 23.98,23.98 0,13.23 -10.75,23.99 -23.98,23.99" /><path
           inkscape:connector-curvature="0"
           id="path5102"
           style="fill:#094e8e;fill-opacity:1;fill-rule:nonzero;stroke:none"
           d="m 2935.63,3971.69 c 92.48,-162.85 242.85,-279.94 423.42,-329.69 61.39,-16.92 124.43,-25.5 187.34,-25.5 99.86,0 199.18,22.02 290.61,63.93 l 372.6,-866.59 c 16.47,-38.29 48.7,-66.76 90.76,-80.18 17.22,-5.48 35.65,-8.26 54.77,-8.26 38.49,0 78.71,11.59 113.23,32.64 l 47.15,28.75 c 54.29,33.11 91.06,84.37 100.89,140.63 7.72,44.27 -2.66,86.81 -29.2,119.78 l -590.88,733.96 c 95.42,80.14 168.38,184.76 210.25,303.65 55.53,157.71 53.08,330.02 -6.89,485.19 -6.1,15.75 -23.9,23.64 -39.65,17.55 -15.78,-6.1 -23.65,-23.9 -17.55,-39.66 54.7,-141.55 56.92,-298.76 6.24,-442.7 -51.18,-145.35 -153.26,-267.38 -287.44,-343.59 -148.6,-84.39 -321.18,-105.87 -485.94,-60.47 -164.77,45.4 -301.99,152.24 -386.39,300.84 -84.4,148.61 -105.88,321.19 -60.48,485.96 45.41,164.76 152.24,301.98 300.85,386.39 213.36,121.18 472.2,110.87 675.48,-26.91 6.79,-4.59 14.93,-6.28 22.99,-4.73 8.04,1.53 15.01,6.12 19.6,12.92 4.59,6.78 6.27,14.94 4.73,22.98 -1.55,8.05 -6.13,15.01 -12.91,19.6 -222.73,150.97 -506.35,162.27 -740.17,29.46 -162.86,-92.48 -279.94,-242.86 -329.69,-423.42 -49.76,-180.54 -26.22,-369.66 66.28,-532.53 z m 1013.5,-229.7 590.3,-733.24 c 19.64,-24.4 19.84,-51.96 16.55,-70.79 -6.68,-38.3 -33.75,-75.23 -72.4,-98.8 l -47.15,-28.75 c -37.59,-22.92 -81.5,-29.77 -117.44,-18.31 -17.6,5.61 -41.08,18.13 -53.04,45.96 l -373.74,869.24 56.92,34.69" /><path
           inkscape:connector-curvature="0"
           id="path5104"
           style="fill:#094e8e;fill-opacity:1;fill-rule:nonzero;stroke:none"
           d="m 4271.3,4969.29 -670.63,-670.65 -393.71,393.72 c -11.58,11.58 -31.77,11.58 -43.35,0 -5.79,-5.8 -8.99,-13.5 -8.99,-21.69 0,-8.19 3.2,-15.89 8.99,-21.68 l 415.38,-415.38 c 5.8,-5.8 13.49,-8.99 21.68,-8.99 8.19,0 15.9,3.19 21.69,8.99 l 692.31,692.32 c 11.95,11.95 11.95,31.4 0,43.36 -11.58,11.59 -31.78,11.59 -43.37,0" /><g
           transform="scale(1.03521)"
           id="g5106"><path
             inkscape:connector-curvature="0"
             id="path5108"
             style="fill:#094e8e;fill-opacity:1;fill-rule:nonzero;stroke:none"
             d="m 12977.7,5679.23 c -65.2,0 -118.2,-53.05 -118.2,-118.27 V 3278.35 c 0,-65.22 53,-118.27 118.2,-118.27 h 3204 c 65.2,0 118.3,53.05 118.3,118.27 v 2282.61 c 0,65.22 -53.1,118.27 -118.3,118.27 z m 3263.7,-2400.88 c 0,-32.89 -26.8,-59.64 -59.7,-59.64 h -3204 c -32.8,0 -59.6,26.75 -59.6,59.64 v 2015.33 h 3323.3 z m 0,2282.61 v -208.64 h -3323.3 v 208.64 c 0,32.88 26.8,59.64 59.6,59.64 h 3204 c 32.9,0 59.7,-26.76 59.7,-59.64" /></g><path
           inkscape:connector-curvature="0"
           id="path5110"
           style="fill:#094e8e;fill-opacity:1;fill-rule:nonzero;stroke:none"
           d="m 13505,4657.82 h 436.1 c 16.8,0 30.4,13.59 30.4,30.36 v 436.12 c 0,16.76 -13.6,30.35 -30.4,30.35 H 13505 c -16.8,0 -30.4,-13.59 -30.4,-30.35 v -436.12 c 0,-16.77 13.6,-30.36 30.4,-30.36 z m 30.3,436.13 h 375.5 v -375.43 h -375.5 v 375.43" /><path
           inkscape:connector-curvature="0"
           id="path5112"
           style="fill:#094e8e;fill-opacity:1;fill-rule:nonzero;stroke:none"
           d="M 13942.2,4592.96 H 13506 c -16.7,0 -30.3,-13.59 -30.3,-30.35 v -436.13 c 0,-16.76 13.6,-30.35 30.3,-30.35 h 436.2 c 16.7,0 30.3,13.59 30.3,30.35 v 436.13 c 0,16.76 -13.6,30.35 -30.3,30.35 z m -30.4,-436.12 h -375.4 v 375.42 h 375.4 v -375.42" /><path
           inkscape:connector-curvature="0"
           id="path5114"
           style="fill:#094e8e;fill-opacity:1;fill-rule:nonzero;stroke:none"
           d="m 14183,4656.77 h 436.1 c 16.8,0 30.4,13.59 30.4,30.35 v 436.13 c 0,16.77 -13.6,30.35 -30.4,30.35 H 14183 c -16.8,0 -30.4,-13.58 -30.4,-30.35 v -436.13 c 0,-16.76 13.6,-30.35 30.4,-30.35 z m 30.3,436.13 h 375.5 v -375.43 h -375.5 v 375.43" /><path
           inkscape:connector-curvature="0"
           id="path5116"
           style="fill:#094e8e;fill-opacity:1;fill-rule:nonzero;stroke:none"
           d="M 14620.1,4591.91 H 14184 c -16.7,0 -30.3,-13.59 -30.3,-30.36 v -436.12 c 0,-16.76 13.6,-30.34 30.3,-30.34 h 436.1 c 16.8,0 30.4,13.58 30.4,30.34 v 436.12 c 0,16.77 -13.6,30.36 -30.4,30.36 z m -30.3,-436.13 h -375.4 v 375.43 h 375.4 v -375.43" /><path
           inkscape:connector-curvature="0"
           id="path5118"
           style="fill:#094e8e;fill-opacity:1;fill-rule:nonzero;stroke:none"
           d="m 14621.2,4027.1 h -436.1 c -16.8,0 -30.4,-13.59 -30.4,-30.35 v -436.12 c 0,-16.77 13.6,-30.36 30.4,-30.36 h 436.1 c 16.8,0 30.3,13.59 30.3,30.36 v 436.12 c 0,16.76 -13.5,30.35 -30.3,30.35 z m -30.4,-436.12 h -375.4 v 375.42 h 375.4 v -375.42" /><path
           inkscape:connector-curvature="0"
           id="path5120"
           style="fill:#094e8e;fill-opacity:1;fill-rule:nonzero;stroke:none"
           d="m 14891.1,4657.82 h 436.1 c 16.8,0 30.4,13.58 30.4,30.35 v 436.12 c 0,16.76 -13.6,30.35 -30.4,30.35 h -436.1 c -16.8,0 -30.3,-13.59 -30.3,-30.35 v -436.12 c 0,-16.77 13.5,-30.35 30.3,-30.35 z m 30.3,436.12 h 375.5 v -375.42 h -375.5 v 375.42" /><path
           inkscape:connector-curvature="0"
           id="path5122"
           style="fill:#094e8e;fill-opacity:1;fill-rule:nonzero;stroke:none"
           d="m 15328.3,4592.95 h -436.2 c -16.7,0 -30.3,-13.59 -30.3,-30.35 v -436.12 c 0,-16.77 13.6,-30.35 30.3,-30.35 h 436.2 c 16.7,0 30.3,13.58 30.3,30.35 v 436.12 c 0,16.76 -13.6,30.35 -30.3,30.35 z m -30.4,-436.13 h -375.4 v 375.43 h 375.4 v -375.43" /><path
           inkscape:connector-curvature="0"
           id="path5124"
           style="fill:#094e8e;fill-opacity:1;fill-rule:nonzero;stroke:none"
           d="m 15329.3,4028.14 h -436.1 c -16.8,0 -30.4,-13.59 -30.4,-30.35 v -436.13 c 0,-16.77 13.6,-30.35 30.4,-30.35 h 436.1 c 16.8,0 30.3,13.58 30.3,30.35 v 436.13 c 0,16.76 -13.5,30.35 -30.3,30.35 z M 15298.9,3592 h -375.4 v 375.44 h 375.4 V 3592" /><path
           inkscape:connector-curvature="0"
           id="path5126"
           style="fill:#094e8e;fill-opacity:1;fill-rule:nonzero;stroke:none"
           d="m 13953.3,5330.7 h -466.8 V 5270 h 466.8 v 60.7" /><path
           inkscape:connector-curvature="0"
           id="path5128"
           style="fill:#094e8e;fill-opacity:1;fill-rule:nonzero;stroke:none"
           d="m 14638.4,5333.61 h -466.8 v -60.69 h 466.8 v 60.69" /><path
           inkscape:connector-curvature="0"
           id="path5130"
           style="fill:#094e8e;fill-opacity:1;fill-rule:nonzero;stroke:none"
           d="m 15334.9,5332.15 h -466.8 v -60.7 h 466.8 v 60.7" /><path
           inkscape:connector-curvature="0"
           id="path5132"
           style="fill:#094e8e;fill-opacity:1;fill-rule:nonzero;stroke:none"
           d="m 15570.9,4657.82 h 436.2 c 16.7,0 30.3,13.58 30.3,30.35 v 436.12 c 0,16.76 -13.6,30.35 -30.3,30.35 h -436.2 c -16.7,0 -30.3,-13.59 -30.3,-30.35 v -436.12 c 0,-16.77 13.6,-30.35 30.3,-30.35 z m 30.4,436.12 h 375.4 v -375.42 h -375.4 v 375.42" /><path
           inkscape:connector-curvature="0"
           id="path5134"
           style="fill:#094e8e;fill-opacity:1;fill-rule:nonzero;stroke:none"
           d="M 16008.1,4592.95 H 15572 c -16.8,0 -30.4,-13.59 -30.4,-30.35 v -436.12 c 0,-16.77 13.6,-30.35 30.4,-30.35 h 436.1 c 16.8,0 30.3,13.58 30.3,30.35 v 436.12 c 0,16.76 -13.5,30.35 -30.3,30.35 z m -30.3,-436.13 h -375.5 v 375.43 h 375.5 v -375.43" /><path
           inkscape:connector-curvature="0"
           id="path5136"
           style="fill:#094e8e;fill-opacity:1;fill-rule:nonzero;stroke:none"
           d="M 16014.8,5332.15 H 15548 v -60.7 h 466.8 v 60.7" /><g
           transform="scale(1.02523)"
           id="g5138"><path
             inkscape:connector-curvature="0"
             id="path5140"
             style="fill:#094e8e;fill-opacity:1;fill-rule:nonzero;stroke:none"
             d="m 15845,4543.2 h 425.4 c 16.3,0 29.6,13.25 29.6,29.6 v 425.39 c 0,16.36 -13.3,29.61 -29.6,29.61 H 15845 c -16.3,0 -29.6,-13.25 -29.6,-29.61 V 4572.8 c 0,-16.35 13.3,-29.6 29.6,-29.6 z m 29.6,425.39 h 366.2 v -366.18 h -366.2 v 366.18" /></g><g
           transform="scale(1.02384)"
           id="g5142"><path
             inkscape:connector-curvature="0"
             id="path5144"
             style="fill:#094e8e;fill-opacity:1;fill-rule:nonzero;stroke:none"
             d="m 16300,5208 h -455.9 v -59.29 H 16300 V 5208" /></g><path
           inkscape:connector-curvature="0"
           id="path5146"
           style="fill:#094e8e;fill-opacity:1;fill-rule:nonzero;stroke:none"
           d="m 5772.82,2064.03 c -15.25,1.29 -28.61,-10.12 -29.84,-25.36 l -13.35,-164.57 c -185.15,216.85 -242.34,521.07 -144.68,792.01 100.08,277.66 354.38,482.12 647.85,520.88 172.41,22.79 350.4,-12.1 501.14,-98.22 13.28,-7.57 30.2,-2.96 37.79,10.31 7.58,13.29 2.97,30.21 -10.31,37.79 -161.21,92.09 -351.56,129.4 -535.87,105.04 -313.78,-41.44 -585.68,-260.09 -692.72,-557.02 -103.11,-286.08 -44.62,-606.8 147.52,-838.05 l -180.4,24.93 c -15.17,2.07 -29.14,-8.5 -31.23,-23.65 -2.09,-15.15 8.49,-29.13 23.64,-31.23 l 255.98,-35.37 c 1.29,-0.17 2.56,-0.26 3.82,-0.26 0.66,0 1.3,0.13 1.95,0.18 0.97,0.07 1.93,0.09 2.89,0.26 1.05,0.19 2.05,0.52 3.05,0.82 0.54,0.17 1.09,0.25 1.63,0.44 0.03,0.02 0.07,0.04 0.1,0.05 0.31,0.11 0.59,0.28 0.9,0.4 1.1,0.46 2.18,0.96 3.2,1.55 0.42,0.24 0.82,0.52 1.23,0.79 0.87,0.55 1.69,1.15 2.48,1.79 0.41,0.33 0.8,0.67 1.19,1.02 0.76,0.69 1.46,1.43 2.14,2.2 0.31,0.37 0.65,0.71 0.96,1.1 0.9,1.14 1.73,2.35 2.44,3.63 0.14,0.23 0.23,0.49 0.35,0.74 0.57,1.09 1.08,2.23 1.49,3.4 0.18,0.49 0.31,0.99 0.46,1.49 0.31,1.03 0.55,2.08 0.74,3.14 0.05,0.31 0.16,0.6 0.2,0.91 0.03,0.21 0,0.4 0.03,0.61 0.04,0.31 0.12,0.62 0.14,0.94 l 18.45,227.47 c 1.24,15.25 -10.12,28.61 -25.36,29.84" /><path
           inkscape:connector-curvature="0"
           id="path5148"
           style="fill:#094e8e;fill-opacity:1;fill-rule:nonzero;stroke:none"
           d="m 7126.07,3007.7 -255.98,35.37 c -0.23,0.03 -0.44,0 -0.67,0.03 -1.61,0.18 -3.23,0.27 -4.86,0.17 -0.13,-0.01 -0.25,-0.04 -0.38,-0.05 -1.49,-0.11 -2.97,-0.37 -4.44,-0.73 -0.51,-0.13 -1.01,-0.28 -1.51,-0.43 -0.5,-0.15 -1,-0.25 -1.48,-0.43 -0.62,-0.22 -1.18,-0.53 -1.78,-0.8 -0.43,-0.19 -0.87,-0.37 -1.29,-0.58 -1.41,-0.73 -2.76,-1.54 -4,-2.47 -0.21,-0.15 -0.38,-0.34 -0.58,-0.5 -1.04,-0.83 -2.01,-1.72 -2.92,-2.68 -0.37,-0.39 -0.71,-0.8 -1.05,-1.21 -0.74,-0.87 -1.41,-1.8 -2.04,-2.76 -0.25,-0.4 -0.53,-0.77 -0.77,-1.18 -0.77,-1.35 -1.44,-2.76 -1.98,-4.24 -0.14,-0.38 -0.24,-0.79 -0.36,-1.19 -0.39,-1.23 -0.7,-2.48 -0.92,-3.77 -0.04,-0.29 -0.15,-0.54 -0.19,-0.82 -0.03,-0.21 0,-0.41 -0.03,-0.61 -0.04,-0.32 -0.12,-0.62 -0.14,-0.94 l -18.45,-227.47 c -1.24,-15.25 10.12,-28.61 25.36,-29.84 15.24,-1.29 28.61,10.11 29.84,25.36 l 13.35,164.57 c 185.15,-216.86 242.35,-521.08 144.69,-792.02 -100.08,-277.66 -354.38,-482.12 -647.85,-520.87 -172.45,-22.78 -350.41,12.1 -501.15,98.21 -13.31,7.57 -30.21,2.97 -37.79,-10.31 -7.58,-13.29 -2.97,-30.2 10.31,-37.79 129.01,-73.69 276.66,-112.29 424.98,-112.29 37.01,0 74.07,2.4 110.89,7.26 313.78,41.44 585.69,260.08 692.72,557.02 103.11,286.07 44.62,606.79 -147.52,838.05 l 180.4,-24.93 c 1.29,-0.18 2.57,-0.26 3.83,-0.26 13.61,0 25.49,10.04 27.4,23.91 2.09,15.15 -8.49,29.13 -23.64,31.22" /><g
           transform="scale(1.0991)"
           id="g5150"><path
             inkscape:connector-curvature="0"
             id="path5152"
             style="fill:#094e8e;fill-opacity:1;fill-rule:nonzero;stroke:none"
             d="m 14903.3,5825.03 h 1168.3 c 125.9,0 228.4,102.46 228.4,228.38 v 524.15 c 0,125.92 -102.5,228.38 -228.4,228.38 h -113.4 c -14.7,0 -26.7,-11.94 -26.7,-26.67 0,-14.73 12,-26.66 26.7,-26.66 h 113.4 c 96.5,0 175.1,-78.53 175.1,-175.05 v -524.15 c 0,-96.52 -78.6,-175.04 -175.1,-175.04 h -1168.3 c -96.5,0 -175,78.52 -175,175.04 v 524.15 c 0,96.52 78.5,175.05 175,175.05 h 116 c 14.7,0 26.6,11.93 26.6,26.66 0,14.73 -11.9,26.67 -26.6,26.67 h -116 c -125.9,0 -228.3,-102.46 -228.3,-228.38 v -524.15 c 0,-125.92 102.4,-228.38 228.3,-228.38" /></g><g
           transform="scale(1.06128)"
           id="g5154"><path
             inkscape:connector-curvature="0"
             id="path5156"
             style="fill:#094e8e;fill-opacity:1;fill-rule:nonzero;stroke:none"
             d="m 15809,7228.7 194,193.95 V 6380.28 c 0,-15.25 12.3,-27.61 27.6,-27.61 15.2,0 27.6,12.36 27.6,27.61 v 1042.56 l 192,-191.17 c 5.4,-5.36 12.4,-8.05 19.5,-8.05 7.1,0 14.1,2.71 19.5,8.13 10.8,10.8 10.8,28.29 0,39.05 l -239.1,238.09 c -0.2,0.2 -0.5,0.34 -0.7,0.53 -0.9,0.87 -1.9,1.67 -2.9,2.41 -0.4,0.27 -0.8,0.55 -1.2,0.8 -1.3,0.83 -2.7,1.59 -4.1,2.2 -0.1,0.01 -0.1,0.02 -0.1,0.03 -0.3,0.13 -0.7,0.19 -1,0.31 -1.2,0.44 -2.4,0.82 -3.7,1.09 -0.5,0.12 -1.1,0.19 -1.6,0.28 -1.1,0.16 -2.1,0.26 -3.2,0.3 -0.6,0.02 -1.1,0.05 -1.7,0.03 -1.3,-0.03 -2.6,-0.16 -3.8,-0.37 -0.5,-0.08 -1,-0.16 -1.5,-0.27 -1.3,-0.28 -2.6,-0.67 -3.8,-1.14 -0.6,-0.22 -1.1,-0.48 -1.7,-0.73 -0.9,-0.45 -1.9,-0.94 -2.8,-1.5 -0.5,-0.29 -1,-0.58 -1.4,-0.91 -1.4,-0.93 -2.7,-1.93 -3.8,-3.11 L 15770,7267.75 c -10.8,-10.78 -10.8,-28.26 0,-39.05 10.7,-10.79 28.2,-10.79 39,0" /></g><path
           inkscape:connector-curvature="0"
           id="path5158"
           style="fill:#094e8e;fill-opacity:1;fill-rule:nonzero;stroke:none"
           d="m 1530.34,1204.7 h -103.32 c -13.41,0 -24.29,-10.88 -24.29,-24.29 0,-13.42 10.88,-24.3 24.29,-24.3 h 103.32 c 87.92,0 159.45,-71.53 159.45,-159.454 V 519.188 c 0,-87.922 -71.53,-159.458 -159.45,-159.458 H 466.086 c -87.918,0 -159.449,71.536 -159.449,159.458 v 477.468 c 0,87.924 71.531,159.454 159.449,159.454 h 105.605 c 13.418,0 24.293,10.88 24.293,24.3 0,13.41 -10.875,24.29 -24.293,24.29 H 466.086 c -114.707,0 -208.031,-93.33 -208.031,-208.044 V 519.188 c 0,-114.708 93.324,-208.04 208.031,-208.04 H 1530.34 c 114.7,0 208.04,93.332 208.04,208.04 v 477.468 c 0,114.714 -93.34,208.044 -208.04,208.044" /><path
           inkscape:connector-curvature="0"
           id="path5160"
           style="fill:#094e8e;fill-opacity:1;fill-rule:nonzero;stroke:none"
           d="m 990.52,592.688 c 13.42,0 24.29,10.875 24.29,24.292 v 917.03 l 168.86,-168.16 c 4.74,-4.71 10.94,-7.08 17.14,-7.08 6.24,0 12.47,2.39 17.22,7.16 9.46,9.5 9.43,24.88 -0.08,34.35 l -210.29,209.41 c -0.35,0.35 -0.77,0.6 -1.13,0.93 -0.42,0.36 -0.84,0.7 -1.28,1.04 -1.65,1.26 -3.38,2.35 -5.23,3.14 -0.075,0.03 -0.129,0.09 -0.204,0.12 -0.019,0.01 -0.039,0.01 -0.058,0.01 -2.012,0.83 -4.117,1.29 -6.246,1.55 -0.469,0.06 -0.926,0.11 -1.399,0.14 -4.211,0.27 -8.433,-0.54 -12.3,-2.45 -0.422,-0.21 -0.825,-0.42 -1.235,-0.65 -1.828,-1.04 -3.582,-2.25 -5.144,-3.8 -0.024,-0.03 -0.063,-0.04 -0.086,-0.07 L 761.281,1397.59 c -9.488,-9.49 -9.488,-24.86 0,-34.35 9.477,-9.49 24.871,-9.49 34.348,0 l 170.601,170.6 V 616.98 c 0,-13.417 10.875,-24.292 24.29,-24.292" /><path
           inkscape:connector-curvature="0"
           id="path5162"
           style="fill:#094e8e;fill-opacity:1;fill-rule:nonzero;stroke:none"
           d="m 8428.42,5935.27 c 0,-121.92 90.81,-222.98 208.33,-239.25 v -919.37 c 0,-160.65 130.69,-291.35 291.34,-291.35 h 224.85 l -112.99,-112.98 c -11.28,-11.28 -11.28,-29.56 0,-40.84 5.64,-5.64 13.03,-8.46 20.42,-8.46 7.39,0 14.78,2.82 20.42,8.46 l 155.71,155.71 c 4.22,4.22 6.86,9.43 7.92,14.88 0.17,0.36 0.38,0.69 0.54,1.06 4.47,10.8 1.99,23.21 -6.26,31.47 l -161.19,161.19 c -11.28,11.28 -29.56,11.28 -40.84,0 -11.28,-11.28 -11.28,-29.55 0,-40.84 l 111.89,-111.89 h -220.47 c -128.8,0 -233.58,104.79 -233.58,233.59 v 918.26 c 121.76,12.32 217.12,115.41 217.12,240.36 0,133.23 -108.39,241.61 -241.61,241.61 -133.22,0 -241.6,-108.38 -241.6,-241.61 z m 425.45,0 c 0,-101.36 -82.48,-183.84 -183.85,-183.84 -101.37,0 -183.84,82.48 -183.84,183.84 0,101.38 82.47,183.86 183.84,183.86 101.37,0 183.85,-82.48 183.85,-183.86" /><path
           inkscape:connector-curvature="0"
           id="path5164"
           style="fill:#094e8e;fill-opacity:1;fill-rule:nonzero;stroke:none"
           d="m 9346.01,6120.13 c -11.28,11.28 -29.56,11.28 -40.84,0 l -155.7,-155.71 c -4.24,-4.23 -6.88,-9.45 -7.93,-14.92 -0.17,-0.34 -0.38,-0.66 -0.52,-1.02 -4.47,-10.79 -2,-23.21 6.26,-31.47 l 161.19,-161.19 c 11.28,-11.28 29.55,-11.28 40.83,0 11.29,11.28 11.29,29.56 0,40.84 l -111.89,111.89 h 220.47 c 128.8,0 233.59,-104.79 233.59,-233.59 v -918.25 c -121.77,-12.31 -217.13,-115.41 -217.13,-240.37 0,-133.21 108.38,-241.6 241.61,-241.6 133.22,0 241.6,108.39 241.6,241.6 0,121.93 -90.8,222.99 -208.33,239.26 v 919.36 c 0,160.65 -130.69,291.35 -291.34,291.35 h -224.86 l 112.99,112.98 c 11.28,11.28 11.28,29.56 0,40.84 z M 9899.8,4516.34 c 0,-101.37 -82.48,-183.84 -183.85,-183.84 -101.38,0 -183.86,82.47 -183.86,183.84 0,101.38 82.48,183.85 183.86,183.85 101.37,0 183.85,-82.47 183.85,-183.85" /><path
           inkscape:connector-curvature="0"
           id="path5166"
           style="fill:#094e8e;fill-opacity:1;fill-rule:nonzero;stroke:none"
           d="m 9166.96,4001.82 c -341.62,-2.5 -748.34,-85.1 -834.35,-260.74 -1.93,-3.97 -3.4,-8.18 -4.31,-12.49 h -1.71 V 2572.5 c 0,-7.95 3.41,-15.56 9.2,-20.9 9.09,-8.41 230.63,-206.54 821.74,-212.11 10.45,-0.11 20.56,-0.11 30.79,-0.11 642.91,0 854.18,191.66 862.98,199.95 5.8,5.45 9,12.84 9,20.68 v 1174.71 h -4.4 c -17.9,77.82 -208.43,147.47 -291.13,174.28 -186.55,60.44 -404.34,94.07 -597.81,92.82 z m 836.54,-1428.41 c -45.82,-34.76 -274.29,-182.45 -845.4,-177.11 -296.3,2.72 -493.75,56.34 -607.24,100.77 -94.07,36.81 -147.47,73.5 -167.46,88.84 v 298.79 c 93.73,-55.67 334.92,-164.28 793.21,-164.28 14.32,0 28.86,0.12 43.63,0.34 423.31,6.25 687.22,118.38 783.26,167.69 z m 0,379.68 c -53.78,-30.45 -322.8,-168.82 -784.17,-175.52 -542.03,-7.84 -786.06,139.97 -835.93,174.84 v 284.14 c 90.89,-49.19 334.46,-150.19 802.87,-150.19 6.02,0 12.16,0.11 18.18,0.11 444.78,2.39 704.26,111.57 799.05,160.98 z m 0,359.23 c -22.54,-13.06 -85.02,-46.8 -188.4,-80.43 -121.68,-39.54 -326.51,-87.03 -610.99,-88.62 -312.31,-1.7 -521.13,43.18 -641.32,81.23 -102.36,32.38 -159.51,65.33 -179.39,78.05 v 337.54 c 68.96,-46.13 187,-83.05 262.21,-103.62 164.16,-44.76 343.89,-72.14 493.06,-74.98 9.77,-0.22 19.65,-0.22 29.65,-0.22 289.7,0 694.95,76.91 835.18,177.45 z m -3,410.02 c 0.8,-7.16 -6.13,-15.91 -10.33,-20.57 -87.14,-95.43 -524.31,-189.61 -850.37,-183.47 -151.66,2.95 -340.03,32.72 -503.85,79.86 -185.64,53.29 -250.05,103.16 -252.32,117.93 63.62,129.86 393.19,226.08 783.67,228.92 h 11.13 c 183.59,0 389.11,-32.26 565.89,-89.07 184.73,-59.42 253.23,-116.67 256.18,-133.6" /><path
           inkscape:connector-curvature="0"
           id="path5168"
           style="fill:#094e8e;fill-opacity:1;fill-rule:nonzero;stroke:none"
           d="m 6129.17,6493.01 h 45.07 v 166.89 h 159.15 v 42.26 h -159.15 v 165.48 h -45.07 v -165.48 h -159.14 v -42.26 h 159.14 v -166.89" /><path
           inkscape:connector-curvature="0"
           id="path5170"
           style="fill:#094e8e;fill-opacity:1;fill-rule:nonzero;stroke:none"
           d="m 13585,2579.96 c 0.5,0.72 1,1.47 1.5,2.25 0.5,0.74 0.9,1.48 1.3,2.24 0.3,0.71 0.6,1.44 0.9,2.19 0.3,0.9 0.6,1.78 0.9,2.7 0.2,0.78 0.3,1.57 0.5,2.39 0.1,0.83 0.2,1.66 0.3,2.49 0,0.52 0.2,1.01 0.2,1.54 0,0.58 -0.2,1.15 -0.2,1.74 0,0.48 -0.1,0.97 -0.1,1.46 -0.2,1.11 -0.3,2.2 -0.6,3.28 -0.2,0.82 -0.5,1.62 -0.8,2.42 -0.2,0.57 -0.4,1.13 -0.7,1.69 -0.5,1.24 -1.2,2.44 -1.9,3.6 -0.1,0.21 -0.3,0.42 -0.4,0.62 -0.6,0.95 -1.3,1.87 -2.1,2.75 -0.3,0.34 -0.6,0.74 -0.9,1.07 l -243.4,266.48 c -11.1,12.22 -31.2,11.43 -41.2,-3.22 -7,-10.14 -4.9,-23.99 3.4,-33.05 l 203.1,-222.33 c 0,-0.05 0,-0.14 -0.1,-0.14 h -1190.2 c 292.4,198.57 433.7,487.04 380.2,785.85 -14.2,78.84 -42.4,154.41 -81.7,223.77 238.1,46.61 286.3,189.8 295.8,250.84 18,114.57 -44.6,235.72 -148.8,288.07 -51.4,25.82 -181.2,66.83 -337.5,-63.75 l 1.4,70.86 c 0.3,13.81 -10.6,25.23 -24.4,25.5 -14.3,0.14 -25.3,-10.68 -25.5,-24.48 l -2.7,-129.68 c 0,-4.31 1,-8.42 2.9,-12.07 3.1,-7.16 9.4,-12.81 17.6,-14.6 l 125.2,-27.42 c 1.8,-0.39 3.6,-0.59 5.4,-0.59 11.5,0 21.8,7.98 24.4,19.66 3,13.49 -5.6,26.82 -19.1,29.77 l -80.9,17.72 c 98.3,84.96 202.5,108.73 290.8,64.39 85.3,-42.85 136.5,-141.95 121.8,-235.65 -17.1,-109.34 -117.1,-186.6 -274.6,-212.78 -104.6,157 -268.1,275.52 -453,316.39 -175.8,38.86 -369.9,6.41 -532.5,-89 -65.7,-38.5 -155.1,-101.42 -208.3,-182.56 -9.3,-14.26 -64.3,-107.73 -93.7,-182 -21,42.08 -57.3,115.51 -112.8,226.52 0,0.06 -0.1,0 -0.1,0.05 -13.5,24.58 -58.9,3.19 -46.8,-23.39 0.4,-0.88 109.5,-219.09 137.8,-275.61 0,-0.05 0.1,-0.09 0.1,-0.13 4,-8.1 6.4,-12.86 6.5,-13.13 0,-0.01 0.1,-0.02 0.1,-0.04 2.8,-5.74 13.6,-4.5 24.3,-0.25 0.2,0.06 0.4,0.09 0.6,0.16 l 304.2,98.83 c 15.7,5.12 23.3,23.76 14.1,38.9 -6.4,10.48 -19.9,14.32 -31.6,10.52 l -251.9,-81.88 c 20.3,49.55 61.8,125.01 93.1,172.72 47.6,72.66 130.1,130.43 190.9,166.1 151.3,88.79 331.7,119.05 494.7,83.03 260.6,-57.61 475.5,-281.33 522.6,-544.04 53.7,-299.74 -105.8,-589.75 -426.8,-776.6 h -1677.5 c -16.6,0 -29.6,-15.37 -25.5,-32.63 2.9,-11.95 14.5,-19.77 26.8,-19.77 h 2968 l -192.8,-229.48 c -9.3,-11.07 -7.8,-27.6 3.2,-36.9 4.9,-4.13 10.9,-6.14 16.9,-6.14 7.4,0 14.9,3.18 20,9.34 l 229,272.53 c 0.2,0.28 0.3,0.6 0.6,0.88" /><path
           inkscape:connector-curvature="0"
           id="path5172"
           style="fill:#094e8e;fill-opacity:1;fill-rule:nonzero;stroke:none"
           d="m 2628.11,6704.61 h 141.68 v -146.73 c 0,-11.04 8.96,-20 20,-20 11.05,0 20,8.96 20,20 v 146.73 h 151.71 c 11.04,0 20,8.95 20,20 0,11.04 -8.96,20 -20,20 h -151.71 v 146.73 c 0,11.04 -8.95,20 -20,20 -11.04,0 -20,-8.96 -20,-20 v -146.73 h -141.68 c -11.04,0 -20,-8.96 -20,-20 0,-11.05 8.96,-20 20,-20" /><path
           inkscape:connector-curvature="0"
           id="path5174"
           style="fill:#094e8e;fill-opacity:1;fill-rule:nonzero;stroke:none"
           d="m 2354.73,4663.69 h 141.68 v -146.73 c 0,-11.04 8.95,-20 20,-20 11.04,0 20,8.96 20,20 v 146.73 h 151.7 c 11.05,0 20,8.96 20,20 0,11.05 -8.95,20 -20,20 h -151.7 v 146.73 c 0,11.04 -8.96,20 -20,20 -11.05,0 -20,-8.96 -20,-20 v -146.73 h -141.68 c -11.05,0 -20,-8.95 -20,-20 0,-11.04 8.95,-20 20,-20" /><path
           inkscape:connector-curvature="0"
           id="path5176"
           style="fill:#094e8e;fill-opacity:1;fill-rule:nonzero;stroke:none"
           d="m 480.816,3528.08 c 0,-11.04 8.954,-20 20,-20 h 141.68 v -146.72 c 0,-11.05 8.953,-20 20,-20 11.043,0 20,8.95 20,20 v 146.72 h 151.703 c 11.047,0 20,8.96 20,20 0,11.05 -8.953,20 -20,20 H 682.496 v 146.73 c 0,11.05 -8.957,20 -20,20 -11.047,0 -20,-8.95 -20,-20 v -146.73 h -141.68 c -11.046,0 -20,-8.95 -20,-20" /><path
           inkscape:connector-curvature="0"
           id="path5178"
           style="fill:#094e8e;fill-opacity:1;fill-rule:nonzero;stroke:none"
           d="m 3053.68,3249.08 c -11.04,0 -20,-8.95 -20,-20 V 3082.36 H 2892 c -11.04,0 -20,-8.96 -20,-20 0,-11.05 8.96,-20 20,-20 h 141.68 v -146.73 c 0,-11.05 8.96,-20 20,-20 11.05,0 20,8.95 20,20 v 146.73 h 151.71 c 11.04,0 20,8.95 20,20 0,11.04 -8.96,20 -20,20 h -151.71 v 146.72 c 0,11.05 -8.95,20 -20,20" /><path
           inkscape:connector-curvature="0"
           id="path5180"
           style="fill:#094e8e;fill-opacity:1;fill-rule:nonzero;stroke:none"
           d="m 179.785,7217.94 h 141.68 v -146.73 c 0,-11.05 8.957,-20 20,-20 11.047,0 20,8.95 20,20 v 146.73 h 151.707 c 11.043,0 20,8.95 20,20 0,11.04 -8.957,20 -20,20 H 361.465 v 146.73 c 0,11.04 -8.953,20 -20,20 -11.043,0 -20,-8.96 -20,-20 v -146.73 h -141.68 c -11.043,0 -20,-8.96 -20,-20 0,-11.05 8.957,-20 20,-20" /><path
           inkscape:connector-curvature="0"
           id="path5182"
           style="fill:#094e8e;fill-opacity:1;fill-rule:nonzero;stroke:none"
           d="m 5295.75,3174.63 h -151.7 v 146.73 c 0,11.04 -8.96,20 -20,20 -11.04,0 -20,-8.96 -20,-20 v -146.73 h -141.68 c -11.04,0 -20,-8.96 -20,-20 0,-11.05 8.96,-20 20,-20 h 141.68 V 2987.9 c 0,-11.05 8.96,-20 20,-20 11.04,0 20,8.95 20,20 v 146.73 h 151.7 c 11.05,0 20,8.95 20,20 0,11.04 -8.95,20 -20,20" /><path
           inkscape:connector-curvature="0"
           id="path5184"
           style="fill:#094e8e;fill-opacity:1;fill-rule:nonzero;stroke:none"
           d="m 6318.4,900.945 h -151.7 v 146.725 c 0,11.05 -8.96,20 -20,20 -11.05,0 -20,-8.95 -20,-20 V 900.945 h -141.68 c -11.05,0 -20,-8.957 -20,-20 0,-11.047 8.95,-20 20,-20 h 141.68 v -146.73 c 0,-11.043 8.95,-20 20,-20 11.04,0 20,8.957 20,20 v 146.73 h 151.7 c 11.05,0 20,8.953 20,20 0,11.043 -8.95,20 -20,20" /><path
           inkscape:connector-curvature="0"
           id="path5186"
           style="fill:#094e8e;fill-opacity:1;fill-rule:nonzero;stroke:none"
           d="m 7704.35,2508.21 c 11.04,0 20,8.95 20,20 v 146.72 h 151.7 c 11.05,0 20,8.96 20,20 0,11.05 -8.95,20 -20,20 h -151.7 v 146.73 c 0,11.05 -8.96,20 -20,20 -11.05,0 -20,-8.95 -20,-20 v -146.73 h -141.68 c -11.04,0 -20,-8.95 -20,-20 0,-11.04 8.96,-20 20,-20 h 141.68 v -146.72 c 0,-11.05 8.95,-20 20,-20" /><path
           inkscape:connector-curvature="0"
           id="path5188"
           style="fill:#094e8e;fill-opacity:1;fill-rule:nonzero;stroke:none"
           d="m 10896.8,2297.21 c -11.1,0 -20,-8.96 -20,-20 v -146.73 h -141.7 c -11,0 -20,-8.96 -20,-20 0,-11.05 9,-20 20,-20 h 141.7 v -146.73 c 0,-11.05 8.9,-20 20,-20 11,0 20,8.95 20,20 v 146.73 h 151.7 c 11,0 20,8.95 20,20 0,11.04 -9,20 -20,20 h -151.7 v 146.73 c 0,11.04 -9,20 -20,20" /><path
           inkscape:connector-curvature="0"
           id="path5190"
           style="fill:#094e8e;fill-opacity:1;fill-rule:nonzero;stroke:none"
           d="m 9360.12,1671.85 h -151.7 v 146.73 c 0,11.05 -8.96,20 -20,20 -11.05,0 -20,-8.95 -20,-20 v -146.73 h -141.69 c -11.04,0 -20,-8.96 -20,-20 0,-11.05 8.96,-20 20,-20 h 141.69 v -146.73 c 0,-11.04 8.95,-20 20,-20 11.04,0 20,8.96 20,20 v 146.73 h 151.7 c 11.04,0 20,8.95 20,20 0,11.04 -8.96,20 -20,20" /><path
           inkscape:connector-curvature="0"
           id="path5192"
           style="fill:#094e8e;fill-opacity:1;fill-rule:nonzero;stroke:none"
           d="m 13273.1,1002.87 h -151.7 v 146.73 c 0,11.04 -8.9,20 -20,20 -11,0 -20,-8.96 -20,-20 v -146.73 h -141.6 c -11.1,0 -20,-8.956 -20,-20.003 0,-11.043 8.9,-20 20,-20 h 141.6 V 816.141 c 0,-11.047 9,-20 20,-20 11.1,0 20,8.953 20,20 v 146.726 h 151.7 c 11.1,0 20,8.957 20,20 0,11.047 -8.9,20.003 -20,20.003" /><path
           inkscape:connector-curvature="0"
           id="path5194"
           style="fill:#094e8e;fill-opacity:1;fill-rule:nonzero;stroke:none"
           d="m 16157.9,656.902 h -151.7 v 146.727 c 0,11.047 -8.9,20 -20,20 -11,0 -20,-8.953 -20,-20 V 656.902 h -141.7 c -11,0 -20,-8.957 -20,-20 0,-11.047 9,-20 20,-20 h 141.7 v -146.73 c 0,-11.043 9,-20 20,-20 11.1,0 20,8.957 20,20 v 146.73 h 151.7 c 11.1,0 20,8.953 20,20 0,11.043 -8.9,20 -20,20" /><g
           transform="scale(1.04674)"
           id="g5196"><path
             inkscape:connector-curvature="0"
             id="path5198"
             style="fill:#094e8e;fill-opacity:1;fill-rule:nonzero;stroke:none"
             d="m 16097.7,2400.51 c 0,-10.55 8.6,-19.11 19.2,-19.11 10.5,0 19.1,8.56 19.1,19.11 v 140.17 h 144.9 c 10.5,0 19.1,8.56 19.1,19.11 0,10.55 -8.6,19.11 -19.1,19.11 H 16136 v 140.17 c 0,10.56 -8.6,19.11 -19.1,19.11 -10.6,0 -19.2,-8.55 -19.2,-19.11 V 2578.9 h -135.3 c -10.6,0 -19.1,-8.56 -19.1,-19.11 0,-10.55 8.5,-19.11 19.1,-19.11 h 135.3 v -140.17" /></g><path
           inkscape:connector-curvature="0"
           id="path5200"
           style="fill:#094e8e;fill-opacity:1;fill-rule:nonzero;stroke:none"
           d="m 15511.3,6364.19 c 0,-11.05 8.9,-20 20,-20 h 141.7 v -146.73 c 0,-11.04 8.9,-20 20,-20 11,0 20,8.96 20,20 v 146.73 h 151.7 c 11,0 20,8.95 20,20 0,11.04 -9,20 -20,20 H 15713 v 146.73 c 0,11.04 -9,20 -20,20 -11.1,0 -20,-8.96 -20,-20 v -146.73 h -141.7 c -11.1,0 -20,-8.96 -20,-20" /><path
           inkscape:connector-curvature="0"
           id="path5202"
           style="fill:#094e8e;fill-opacity:1;fill-rule:nonzero;stroke:none"
           d="m 12838.7,4447.03 c 11.1,0 20,8.95 20,20 v 146.73 h 151.7 c 11.1,0 20,8.95 20,20 0,11.04 -8.9,20 -20,20 h -151.7 v 146.72 c 0,11.05 -8.9,20 -20,20 -11,0 -20,-8.95 -20,-20 V 4653.76 H 12677 c -11,0 -20,-8.96 -20,-20 0,-11.05 9,-20 20,-20 h 141.7 v -146.73 c 0,-11.05 9,-20 20,-20" /><path
           inkscape:connector-curvature="0"
           id="path5204"
           style="fill:#094e8e;fill-opacity:1;fill-rule:nonzero;stroke:none"
           d="m 10674.6,4032.62 c 11,0 20,8.95 20,20 v 146.72 h 151.7 c 11,0 20,8.96 20,20 0,11.05 -9,20 -20,20 h -151.7 v 146.73 c 0,11.05 -9,20 -20,20 -11.1,0 -20,-8.95 -20,-20 v -146.73 h -141.7 c -11.1,0 -20,-8.95 -20,-20 0,-11.04 8.9,-20 20,-20 h 141.7 v -146.72 c 0,-11.05 8.9,-20 20,-20" /><path
           inkscape:connector-curvature="0"
           id="path5206"
           style="fill:#094e8e;fill-opacity:1;fill-rule:nonzero;stroke:none"
           d="m 9628.77,6512.46 h 141.68 v -146.73 c 0,-11.04 8.96,-20 20,-20 11.05,0 20,8.96 20,20 v 146.73 h 151.71 c 11.04,0 20,8.95 20,20 0,11.04 -8.96,20 -20,20 h -151.71 v 146.73 c 0,11.04 -8.95,20 -20,20 -11.04,0 -20,-8.96 -20,-20 v -146.73 h -141.68 c -11.04,0 -20,-8.96 -20,-20 0,-11.05 8.96,-20 20,-20" /><path
           inkscape:connector-curvature="0"
           id="path5208"
           style="fill:#094e8e;fill-opacity:1;fill-rule:nonzero;stroke:none"
           d="m 8261.85,4379.34 c 11.04,0 20,8.96 20,20 v 146.73 h 151.7 c 11.05,0 20,8.96 20,20 0,11.05 -8.95,20 -20,20 h -151.7 v 146.73 c 0,11.05 -8.96,20 -20,20 -11.05,0 -20,-8.95 -20,-20 v -146.73 h -141.68 c -11.04,0 -20,-8.95 -20,-20 0,-11.04 8.96,-20 20,-20 h 141.68 v -146.73 c 0,-11.04 8.95,-20 20,-20" /><g
           transform="scale(1.18418)"
           id="g5210"><path
             inkscape:connector-curvature="0"
             id="path5212"
             style="fill:#094e8e;fill-opacity:1;fill-rule:nonzero;stroke:none"
             d="m 16001.6,5844.82 h 119.6 v -123.9 c 0,-9.33 7.6,-16.89 16.9,-16.89 9.3,0 16.9,7.56 16.9,16.89 v 123.9 h 128.1 c 9.3,0 16.9,7.57 16.9,16.89 0,9.33 -7.6,16.89 -16.9,16.89 H 16155 v 123.91 c 0,9.32 -7.6,16.89 -16.9,16.89 -9.3,0 -16.9,-7.57 -16.9,-16.89 V 5878.6 h -119.6 c -9.3,0 -16.9,-7.56 -16.9,-16.89 0,-9.32 7.6,-16.89 16.9,-16.89" /></g><path
           inkscape:connector-curvature="0"
           id="path5214"
           style="fill:#094e8e;fill-opacity:1;fill-rule:nonzero;stroke:none"
           d="m 4760.26,2239.5 c 0,44.02 -35.81,79.83 -79.83,79.83 H 2714.57 c -44.01,0 -79.82,-35.81 -79.82,-79.83 v -88.48 c 0,-44.01 35.81,-79.83 79.82,-79.83 h 1965.86 c 44.02,0 79.83,35.82 79.83,79.83 z m -55.78,-88.48 c 0,-13.26 -10.79,-24.04 -24.05,-24.04 H 2714.57 c -13.25,0 -24.04,10.78 -24.04,24.04 v 88.48 c 0,13.26 10.79,24.04 24.04,24.04 h 1965.86 c 13.26,0 24.05,-10.78 24.05,-24.04 v -88.48" /><path
           inkscape:connector-curvature="0"
           id="path5216"
           style="fill:#094e8e;fill-opacity:1;fill-rule:nonzero;stroke:none"
           d="m 4760.26,1882.37 c 0,44.01 -35.81,79.83 -79.83,79.83 H 2714.57 c -44.01,0 -79.82,-35.82 -79.82,-79.83 v -88.48 c 0,-44.01 35.81,-79.82 79.82,-79.82 h 1965.86 c 44.02,0 79.83,35.81 79.83,79.82 z m -55.78,-88.48 c 0,-13.25 -10.79,-24.04 -24.05,-24.04 H 2714.57 c -13.25,0 -24.04,10.79 -24.04,24.04 v 88.48 c 0,13.26 10.79,24.04 24.04,24.04 h 1965.86 c 13.26,0 24.05,-10.78 24.05,-24.04 v -88.48" /><path
           inkscape:connector-curvature="0"
           id="path5218"
           style="fill:#094e8e;fill-opacity:1;fill-rule:nonzero;stroke:none"
           d="m 4760.26,1541.47 c 0,44.02 -35.81,79.83 -79.83,79.83 H 2714.57 c -44.01,0 -79.82,-35.81 -79.82,-79.83 V 1453 c 0,-44.02 35.81,-79.83 79.82,-79.83 h 1965.86 c 44.02,0 79.83,35.81 79.83,79.83 z M 4704.48,1453 c 0,-13.26 -10.79,-24.05 -24.05,-24.05 H 2714.57 c -13.25,0 -24.04,10.79 -24.04,24.05 v 88.47 c 0,13.26 10.79,24.05 24.04,24.05 h 1965.86 c 13.26,0 24.05,-10.79 24.05,-24.05 V 1453" /><path
           inkscape:connector-curvature="0"
           id="path5220"
           style="fill:#094e8e;fill-opacity:1;fill-rule:nonzero;stroke:none"
           d="m 4760.26,1196.51 c 0,44.02 -35.81,79.83 -79.83,79.83 H 2714.57 c -44.01,0 -79.82,-35.81 -79.82,-79.83 v -88.47 c 0,-44.02 35.81,-79.83 79.82,-79.83 h 1965.86 c 44.02,0 79.83,35.81 79.83,79.83 z m -55.78,-88.47 c 0,-13.27 -10.79,-24.05 -24.05,-24.05 H 2714.57 c -13.25,0 -24.04,10.78 -24.04,24.05 v 88.47 c 0,13.26 10.79,24.05 24.04,24.05 h 1965.86 c 13.26,0 24.05,-10.79 24.05,-24.05 v -88.47" /><path
           inkscape:connector-curvature="0"
           id="path5222"
           style="fill:#094e8e;fill-opacity:1;fill-rule:nonzero;stroke:none"
           d="m 4760.26,839.387 c 0,44.015 -35.81,79.828 -79.83,79.828 H 2714.57 c -44.01,0 -79.82,-35.813 -79.82,-79.828 v -88.481 c 0,-44.015 35.81,-79.824 79.82,-79.824 h 1965.86 c 44.02,0 79.83,35.809 79.83,79.824 z m -55.78,-88.481 c 0,-13.258 -10.79,-24.043 -24.05,-24.043 H 2714.57 c -13.25,0 -24.04,10.785 -24.04,24.043 v 88.481 c 0,13.258 10.79,24.047 24.04,24.047 h 1965.86 c 13.26,0 24.05,-10.789 24.05,-24.047 v -88.481" /><path
           inkscape:connector-curvature="0"
           id="path5224"
           style="fill:#094e8e;fill-opacity:1;fill-rule:nonzero;stroke:none"
           d="M 4680.43,578.316 H 2714.57 c -44.01,0 -79.82,-35.812 -79.82,-79.828 v -88.48 c 0,-44.016 35.81,-79.824 79.82,-79.824 h 1965.86 c 44.02,0 79.83,35.808 79.83,79.824 v 88.48 c 0,44.016 -35.81,79.828 -79.83,79.828 z m 24.05,-168.308 c 0,-13.258 -10.79,-24.043 -24.05,-24.043 H 2714.57 c -13.25,0 -24.04,10.785 -24.04,24.043 v 88.48 c 0,13.258 10.79,24.047 24.04,24.047 h 1965.86 c 13.26,0 24.05,-10.789 24.05,-24.047 v -88.48" /><path
           inkscape:connector-curvature="0"
           id="path5226"
           style="fill:#094e8e;fill-opacity:1;fill-rule:nonzero;stroke:none"
           d="M 5116.24,129.051 H 2395.3 c -15.41,0 -27.89,-12.488 -27.89,-27.891 0,-15.4061 12.48,-27.8905 27.89,-27.8905 h 2720.94 c 15.4,0 27.89,12.4844 27.89,27.8905 0,15.403 -12.49,27.891 -27.89,27.891" /></g></g></g></svg>